<svg width="785" height="148" viewBox="0 0 785 148" fill="none" xmlns="http://www.w3.org/2000/svg">
<path d="M60.192 139.576C50.4 139.576 41.52 137.368 33.552 132.952C25.68 128.536 19.488 122.44 14.976 114.664C10.464 106.888 8.208 98.2 8.208 88.6C8.208 79 10.464 70.312 14.976 62.536C19.488 54.76 25.68 48.664 33.552 44.248C41.52 39.832 50.4 37.624 60.192 37.624C67.104 37.624 73.584 38.776 79.632 41.08C85.68 43.288 90.864 46.6 95.184 51.016L92.16 54.184C83.808 46.12 73.2 42.088 60.336 42.088C51.504 42.088 43.488 44.152 36.288 48.28C29.088 52.312 23.424 57.88 19.296 64.984C15.168 72.088 13.104 79.96 13.104 88.6C13.104 97.24 15.168 105.112 19.296 112.216C23.424 119.32 29.088 124.936 36.288 129.064C43.488 133.096 51.504 135.112 60.336 135.112C73.104 135.112 83.712 131.032 92.16 122.872L95.184 126.04C90.864 130.456 85.68 133.816 79.632 136.12C73.68 138.424 67.2 139.576 60.192 139.576ZM125.984 38.2H133.328V132.376H191.36V139H125.984V38.2ZM258.891 139.864C248.907 139.864 239.835 137.656 231.675 133.24C223.611 128.728 217.275 122.584 212.667 114.808C208.155 107.032 205.899 98.296 205.899 88.6C205.899 78.904 208.155 70.168 212.667 62.392C217.275 54.616 223.611 48.52 231.675 44.104C239.835 39.592 248.907 37.336 258.891 37.336C268.875 37.336 277.851 39.544 285.819 43.96C293.883 48.376 300.219 54.52 304.827 62.392C309.435 70.168 311.739 78.904 311.739 88.6C311.739 98.296 309.435 107.08 304.827 114.952C300.219 122.728 293.883 128.824 285.819 133.24C277.851 137.656 268.875 139.864 258.891 139.864ZM258.891 130.36C266.859 130.36 274.059 128.584 280.491 125.032C286.923 121.384 291.963 116.392 295.611 110.056C299.259 103.624 301.083 96.472 301.083 88.6C301.083 80.728 299.259 73.624 295.611 67.288C291.963 60.856 286.923 55.864 280.491 52.312C274.059 48.664 266.859 46.84 258.891 46.84C250.923 46.84 243.675 48.664 237.147 52.312C230.715 55.864 225.627 60.856 221.883 67.288C218.235 73.624 216.411 80.728 216.411 88.6C216.411 96.472 218.235 103.624 221.883 110.056C225.627 116.392 230.715 121.384 237.147 125.032C243.675 128.584 250.923 130.36 258.891 130.36ZM381.848 140.152C368.408 140.152 357.944 136.312 350.455 128.632C342.967 120.952 339.223 109.912 339.223 95.512V38.2H353.624V94.936C353.624 116.536 363.08 127.336 381.992 127.336C391.208 127.336 398.264 124.696 403.16 119.416C408.056 114.04 410.504 105.88 410.504 94.936V38.2H424.472V95.512C424.472 110.008 420.728 121.096 413.24 128.776C405.752 136.36 395.288 140.152 381.848 140.152ZM458.17 38.2H502.234C512.986 38.2 522.538 40.312 530.89 44.536C539.242 48.664 545.722 54.568 550.33 62.248C554.938 69.832 557.242 78.616 557.242 88.6C557.242 98.584 554.938 107.416 550.33 115.096C545.722 122.68 539.242 128.584 530.89 132.808C522.538 136.936 512.986 139 502.234 139H458.17V38.2ZM501.37 123.16C508.762 123.16 515.242 121.768 520.81 118.984C526.474 116.104 530.794 112.072 533.77 106.888C536.842 101.608 538.378 95.512 538.378 88.6C538.378 81.688 536.842 75.64 533.77 70.456C530.794 65.176 526.474 61.144 520.81 58.36C515.242 55.48 508.762 54.04 501.37 54.04H476.89V123.16H501.37ZM660.37 116.968V139H579.442V38.2H658.498V60.232H607.666V77.224H652.45V98.536H607.666V116.968H660.37ZM723.281 113.656H714.064V139H680.08V38.2H728.609C737.921 38.2 746.033 39.736 752.945 42.808C759.857 45.88 765.185 50.296 768.929 56.056C772.673 61.816 774.545 68.536 774.545 76.216C774.545 83.416 772.913 89.704 769.649 95.08C766.385 100.456 761.681 104.728 755.537 107.896L776.705 139H740.416L723.281 113.656ZM740.273 76.216C740.273 72.472 739.121 69.592 736.817 67.576C734.513 65.464 731.056 64.408 726.448 64.408H714.064V88.024H726.448C731.056 88.024 734.513 87.016 736.817 85C739.121 82.888 740.273 79.96 740.273 76.216Z" fill="black"/>
<path d="M287 88L243.5 113.115L243.5 62.8853L287 88Z" fill="black"/>
</svg>
