<svg width="49" height="49" viewBox="0 0 49 49" fill="none" xmlns="http://www.w3.org/2000/svg">
<g clip-path="url(#clip0)">
<path d="M2.45 49.0002H6.53333C7.22627 48.998 7.88554 48.701 8.34633 48.1835H28.8283C30.0266 48.1839 31.2017 47.8541 32.2249 47.2304L47.53 37.9131C48.2652 37.4651 48.7775 36.7281 48.9412 35.8829C49.104 35.0637 48.9188 34.2137 48.43 33.5366C48.4154 33.5126 48.3996 33.4895 48.3826 33.4672C47.594 32.415 46.2196 31.987 44.973 32.4055L32.3228 36.6219L47.9441 20.9942C48.2629 20.6753 48.2629 20.1583 47.9441 19.8394L41.4107 13.3061C40.1613 12.0946 38.169 12.1161 36.946 13.3543L36.8684 13.431C36.4523 13.8616 36.2585 14.4602 36.3433 15.0529C36.536 16.6281 35.7842 18.1692 34.4241 18.9868C33.2128 19.7369 31.6853 19.753 30.4584 19.0285C29.4607 18.4383 28.797 17.4149 28.665 16.2633C28.5252 15.0424 28.9557 13.8252 29.832 12.9637C30.7083 12.1023 31.9327 11.6926 33.151 11.8532C33.7303 11.9358 34.3151 11.7445 34.7337 11.3355L34.8251 11.2448C36.066 10.0208 36.0878 8.0253 34.8741 6.7744L28.3408 0.241062C28.0219 -0.0777499 27.5049 -0.0777499 27.186 0.241062L20.4485 6.97121C20.1571 7.26733 19.7614 7.43764 19.346 7.4457C18.9325 7.4705 18.5307 7.30292 18.2574 6.99163L18.2117 6.9459C18.1747 6.88801 18.1621 6.81786 18.1766 6.75071C18.47 5.08879 17.9583 3.38615 16.7974 2.16128C15.6364 0.936413 13.9636 0.334311 12.2884 0.538329C10.5529 0.739187 9.00459 1.72258 8.085 3.20801C6.9985 4.9329 6.95762 7.1179 7.97883 8.88222C9.10604 10.7937 11.2964 11.8107 13.484 11.4384C13.5598 11.4204 13.6397 11.4356 13.7037 11.48L13.769 11.5454C14.0476 11.8256 14.2 12.2071 14.1912 12.6021C14.1846 13.0176 14.0155 13.414 13.72 13.7063L6.9825 20.4348C6.82915 20.588 6.74298 20.7958 6.74298 21.0126C6.74298 21.2293 6.82915 21.4372 6.9825 21.5904L16.2002 30.8056C15.9993 30.68 15.8052 30.5437 15.6188 30.3973C14.1516 29.226 12.3307 28.5866 10.4533 28.5835H8.83307C8.48823 27.6081 7.56788 26.9544 6.53333 26.9502H2.45C1.0969 26.9502 0 28.0471 0 29.4002V46.5502C0 47.9033 1.0969 49.0002 2.45 49.0002ZM8.71792 21.013L14.8772 14.8635C15.4747 14.2711 15.8157 13.4679 15.827 12.6266C15.8445 11.7908 15.5201 10.984 14.9287 10.393L14.8642 10.3285C14.4336 9.90585 13.8242 9.71936 13.2308 9.82873C11.7055 10.0861 10.1794 9.3769 9.39248 8.04513C8.68303 6.81168 8.71414 5.28696 9.47333 4.08348C10.1276 3.01933 11.2325 2.31272 12.473 2.16513C13.6402 2.01973 14.8068 2.43904 15.6144 3.29421C16.422 4.14938 16.7739 5.33811 16.562 6.4951C16.4639 7.08767 16.6552 7.6914 17.0765 8.11945L17.1361 8.17253C17.7156 8.75466 18.5042 9.08029 19.3256 9.07658H19.3754C20.2149 9.06267 21.0157 8.72091 21.6066 8.12435L27.7667 1.97158L33.7202 7.92181C34.3003 8.53317 34.2803 9.49761 33.6753 10.0843L33.583 10.175C33.5216 10.222 33.4437 10.2418 33.3674 10.2297C31.6491 10.0032 29.9223 10.5817 28.6872 11.7977C27.4522 13.0136 26.8468 14.7311 27.0464 16.4527C27.2423 18.0971 28.1849 19.5595 29.6017 20.4168C31.3558 21.4592 33.5435 21.4419 35.2808 20.3719C37.1873 19.2216 38.2377 17.0565 37.9611 14.8471C37.9428 14.7556 37.9635 14.6606 38.0183 14.585L38.0951 14.5082C38.6803 13.9026 39.6439 13.8808 40.256 14.4592L46.2119 20.4168L29.0733 37.5668H28.6185C29.0068 36.5038 28.8952 35.3223 28.3147 34.3508L28.2412 34.2291C27.3512 32.7561 25.7571 31.8543 24.0361 31.8502H19.7633C19.6898 31.8502 19.6172 31.8428 19.5437 31.8404L8.71792 21.013ZM14.5979 31.6713C15.9129 32.7185 17.5148 33.3419 19.1917 33.459C19.382 33.4721 19.5722 33.4835 19.7633 33.4835H24.0353C25.1815 33.4867 26.243 34.0875 26.8357 35.0686L26.9092 35.1903C27.3548 35.9338 27.3064 36.8731 26.7867 37.5668H21.8254C20.2128 37.5653 18.6361 38.0428 17.2954 38.9388L16.6968 39.3374C16.3215 39.5877 16.2202 40.0948 16.4705 40.4701C16.7209 40.8453 17.228 40.9466 17.6033 40.6963L18.2011 40.2978C19.2738 39.5809 20.5352 39.1989 21.8254 39.2002H29.084C29.1852 39.2002 29.284 39.183 29.3845 39.1757C29.3984 39.1757 29.4114 39.1838 29.4245 39.1838C29.4573 39.1796 29.4897 39.1733 29.5217 39.165C29.8118 39.1378 30.0982 39.0794 30.3759 38.9911L45.4932 33.9514C46.0467 33.7606 46.6605 33.9319 47.0351 34.3818C47.049 34.4055 47.0653 34.4284 47.0817 34.4512C47.3224 34.7716 47.4165 35.1787 47.3409 35.5723C47.2653 35.9658 47.027 36.309 46.6848 36.5174L31.3763 45.8356C30.6086 46.303 29.7271 46.5502 28.8283 46.5502H8.98333V30.2168H10.4533C11.9596 30.2188 13.4207 30.7316 14.5979 31.6713ZM1.63333 29.4002C1.63333 28.9491 1.99897 28.5835 2.45 28.5835H6.53333C6.98437 28.5835 7.35 28.9491 7.35 29.4002V46.5502C7.35 47.0012 6.98437 47.3668 6.53333 47.3668H2.45C1.99897 47.3668 1.63333 47.0012 1.63333 46.5502V29.4002Z" fill="white"/>
</g>
<defs>
<clipPath id="clip0">
<rect width="49" height="49" fill="white"/>
</clipPath>
</defs>
</svg>
