<svg width="49" height="49" viewBox="0 0 49 49" fill="none" xmlns="http://www.w3.org/2000/svg">
<path d="M46.8467 1.1582H2.15333C1.55997 1.1582 1.15802 1.56016 1.15802 2.15352V46.8469C1.15802 47.4402 1.55997 47.8422 2.15333 47.8422H24.5C25.0934 47.8422 25.4953 47.4402 25.4953 46.9521V38.2145C25.4953 37.6211 25.0934 37.2191 24.5 37.2191H22.6147C22.2127 37.2191 21.916 37.4201 21.7246 37.7168C21.026 39.0088 19.734 39.7074 18.3463 39.7074C16.1643 39.7074 14.3746 37.9178 14.3746 35.7357C14.3746 33.5537 16.1643 31.7641 18.3463 31.7641C19.734 31.7641 21.026 32.4627 21.7246 33.7547C21.9256 34.0514 22.2223 34.2523 22.6147 34.2523H24.5C25.0934 34.2523 25.4953 33.8504 25.4953 33.257V25.5051H32.252V26.0027C30.6537 27.0842 29.7637 28.8738 29.7637 30.7592C29.7637 34.0322 32.4434 36.7215 35.726 36.7215C39.0086 36.7215 41.6883 34.0418 41.583 30.6635C41.583 28.7781 40.693 26.9885 39.1043 25.8975V25.4955H46.8563C47.4496 25.4955 47.8516 25.0936 47.8516 24.5002V2.15352C47.842 1.56016 47.4401 1.1582 46.8467 1.1582ZM23.5047 3.14883V10.7955C23.5047 11.3889 23.9067 11.7908 24.5 11.7908H26.3854C26.7873 11.7908 27.084 11.5898 27.2754 11.2932C27.974 10.0012 29.266 9.30254 30.6537 9.30254C32.8358 9.30254 34.6254 11.0922 34.6254 13.2742C34.6254 15.4563 32.8358 17.2459 30.6537 17.2459C29.266 17.2459 27.974 16.5473 27.2754 15.2553C27.0744 14.9586 26.7778 14.7576 26.3854 14.7576H24.5C23.9067 14.7576 23.5047 15.1596 23.5047 15.7529V23.5049H16.8533V23.1029C18.442 22.0119 19.332 20.2223 19.332 18.3369C19.332 15.0639 16.6524 12.3746 13.3697 12.3746C10.0871 12.3746 7.40743 15.0543 7.40743 18.3369C7.40743 20.2223 8.29747 22.0119 9.88615 23.1029V23.5049H3.14865V3.14883H23.5047ZM23.5047 32.1469H23.1027C22.0117 30.5582 20.2221 29.6682 18.3367 29.6682C15.0637 29.6682 12.3744 32.3479 12.3744 35.6305C12.3744 38.9035 15.0541 41.5928 18.3367 41.5928C20.2221 41.5928 22.0117 40.7027 23.1027 39.1141H23.5047V45.8707H3.14865V25.4955H10.7953C11.3887 25.4955 11.7906 25.0936 11.7906 24.5002V22.6148C11.7906 22.2129 11.5897 21.9162 11.293 21.7248C10.001 21.0262 9.30236 19.7342 9.30236 18.3465C9.30236 16.1645 11.092 14.3748 13.274 14.3748C15.4561 14.3748 17.2457 16.1645 17.2457 18.3465C17.2457 19.7342 16.5471 21.0262 15.2551 21.7248C14.9584 21.9258 14.7574 22.2225 14.7574 22.6148V24.5002C14.7574 25.0936 15.1594 25.4955 15.7527 25.4955H23.5047V32.1469ZM45.9567 23.5049H38.2047C37.6113 23.5049 37.2094 23.9068 37.2094 24.5002V26.3855C37.2094 26.7875 37.4104 27.0842 37.707 27.2756C38.999 27.9742 39.6977 29.2662 39.6977 30.6539C39.6977 32.8359 37.908 34.6256 35.726 34.6256C33.544 34.6256 31.7543 32.8359 31.7543 30.6539C31.7543 29.2662 32.4529 27.9742 33.7449 27.2756C34.0416 27.0746 34.2426 26.7779 34.2426 26.3855V24.5002C34.2426 23.9068 33.8406 23.5049 33.2473 23.5049H25.4953V16.8535H25.8973C26.9883 18.4422 28.7779 19.3322 30.6633 19.3322C33.9363 19.3322 36.6256 16.6525 36.6256 13.3699C36.6256 10.0969 33.9459 7.40762 30.6633 7.40762C28.7779 7.40762 26.9883 8.29766 25.8973 9.88633H25.4953V3.14883H45.9567V23.5049Z" fill="white"/>
</svg>
