<svg width="597" height="597" viewBox="0 0 597 597" fill="none" xmlns="http://www.w3.org/2000/svg">
<path d="M293.577 22.5283L233.466 45.0566C220.418 50.2193 150.152 86.4524 113.248 116.866C67.1176 154.882 69.9133 154.882 39.1598 187.267C14.5571 213.174 1.45597 253.443 0.0577225 268.932C-1.34016 308.356 22.4213 350.597 96.5114 364.677C125.867 368.901 123.071 370.309 146.835 370.309C170.599 370.309 199.991 353.413 206.945 337.925C107.415 359.326 54.5751 331.354 41.9939 315.396C25.6853 299.439 10.0857 254.288 72.7109 195.715C150.992 122.498 177.552 114.05 222.284 90.1132C267.017 66.1769 292.177 59.1368 296.37 57.7288C300.564 56.3208 330.853 45.9953 345.298 42.2406C349.157 41.2375 354.311 40.7695 367.664 39.4245C381.644 38.0165 388.631 38.0165 388.631 38.0165C392.824 37.5472 399.852 38.2981 405.444 39.4245C411.035 40.5509 413.831 41.7712 416.718 46.2779L418.025 49.2807L419.423 54.9127C419.423 61.9528 419.935 59.3763 415.193 68.9929C409.637 80.2571 378.381 129.538 362.073 152.066C339.707 183.042 294.695 245.277 293.577 246.403C292.179 247.811 262.724 247.839 255.87 249.219C248.881 250.627 229.274 254.851 218.091 260.483C206.908 266.116 185.94 297.092 198.521 288.644C211.102 280.196 240.457 275.972 274.007 275.972C212.5 377.349 213.671 401.119 212.536 412.55C211.138 426.63 216.693 446.342 218.091 450.566C219.209 453.945 224.149 462.3 226.478 466.054L232.07 474.502L240.457 482.95C242.787 484.358 247.866 487.174 249.544 487.174C251.221 487.174 260.96 489.052 265.619 489.991L262.823 487.174L260.028 480.134L258.63 473.094V466.054V457.606C258.63 455.353 259.562 449.158 260.028 446.342L261.426 439.302L262.823 429.446L265.619 420.998C266.738 417.618 277.268 393.307 282.394 381.573L306.158 337.925C317.807 317.743 341.105 277.943 341.105 280.196C341.105 282.449 409.135 288.644 443.151 291.46L404.01 360.453C397.02 374.064 381.085 405.228 373.256 420.998C365.428 436.767 359.743 451.974 357.88 457.606C356.016 461.83 350.611 475.629 343.901 497.031C337.191 518.433 344.833 544.434 349.492 554.759C350.89 558.514 355.643 567.995 363.471 575.88C373.256 585.736 373.256 584.328 376.052 587.144C378.289 589.397 386.303 592.776 390.031 594.184L419.423 597C423.616 597 408.321 594.455 402.612 588.552C401.25 587.144 399.35 579.634 398.418 575.88L397.056 560.391L399.816 536.455L402.612 522.375L410.999 495.623L427.774 447.75L461.323 375.941L506.055 290.052L520.034 288.644L539.605 281.604C542.866 280.196 551.347 275.69 559.175 268.932C567.003 262.173 571.756 248.281 573.154 242.179C563.369 249.219 543.332 249.219 528.422 249.219L529.819 247.811L548.028 218.243L567.598 184.45L580.179 160.514L588.567 142.21C590.43 136.578 596.698 117.033 596.954 109.825C598.352 70.4009 567.598 46.4646 562.007 43.6486L564.802 68.9929V81.6651C564.802 91.5212 549.426 125.314 525.954 157.698L500.5 195.715L469.71 246.403H466.915L388.633 244.995H363.471L381.644 218.243L419.387 153.474L438.957 116.866L450.14 90.1132C452.004 82.1344 457.129 64.7689 452.936 49.2807C449.356 36.0601 443.617 25.8137 440.355 22.5283C436.161 18.7736 424.976 5.63208 406.803 1.40802L395.62 0H380.243L367.664 1.40802L355.082 4.22406L293.577 22.5283Z" fill="black"/>
</svg>
