<svg height="512.00005pt" viewBox="0 0 512.00005 512.00005" width="512.00005pt" xmlns="http://www.w3.org/2000/svg"><path d="m256.003906 169.996094c-47.421875 0-86 38.578125-86 86s38.578125 86.003906 86 86.003906 86-38.582031 86-86.003906-38.578125-86-86-86zm0 157.003906c-39.152344 0-71-31.851562-71-71.003906 0-39.148438 31.847656-71 71-71 39.148438 0 71 31.851562 71 71 0 39.152344-31.851562 71.003906-71 71.003906zm0 0"/><path d="m256.003906 217.996094c-20.953125 0-38 17.046875-38 38s17.046875 38 38 38 38-17.046875 38-38-17.046875-38-38-38zm0 61.003906c-12.683594 0-23-10.320312-23-23 0-12.683594 10.316406-23 23-23 12.679688 0 23 10.316406 23 23 0 12.679688-10.316406 23-23 23zm0 0"/><path d="m479.703125 115.234375c.882813-.832031 1.578125-1.875 1.984375-3.082031l29.363281-88.089844c2.203125-6.609375.511719-13.773438-4.414062-18.699219s-12.089844-6.617187-18.699219-4.414062l-88.089844 29.363281c-1.09375.367188-2.113281.996094-2.933594 1.8125l-90.953124 90.957031c-16.28125-3.347656-33.042969-5.085937-49.957032-5.085937-16.890625 0-33.628906 1.730468-49.882812 5.070312l-28.011719-28.011718c-5.269531-5.269532-12.976563-6.628907-19.519531-4.105469l-17.007813-17.007813-6.722656-36.054687c-1.308594-7.007813-6.664063-12.476563-13.648437-13.925781l-96.71875-20.074219c-5.792969-1.203125-11.746094.578125-15.929688 4.761719-4.183594 4.179687-5.960938 10.136718-4.761719 15.929687l20.074219 96.71875c1.449219 6.984375 6.917969 12.339844 13.929688 13.648437l36.054687 6.722657 17.09375 17.097656c-2.382813 6.480469-.996094 14.050781 4.199219 19.246094l1.105468 1.105469c-24.292968 23.660156-38.253906 51.207031-38.253906 76.882812 0 25.652344 13.941406 53.183594 38.207032 76.832031l-29.847657 29.851563-.027343-.027344c-2.4375-2.433594-5.671876-3.773438-9.113282-3.773438s-6.675781 1.339844-9.109375 3.773438l-15.234375 15.230469c-5.023437 5.023437-5.023437 13.199219 0 18.222656l.027344.027344-24.398438 24.398437c-5.488281 5.488282-8.507812 12.78125-8.507812 20.535156 0 7.757813 3.019531 15.050782 8.507812 20.535157l41.886719 41.890625c5.484375 5.484375 12.777344 8.503906 20.535157 8.503906 7.757812 0 15.050781-3.019531 20.535156-8.507812l24.398437-24.398438.027344.027344c2.511719 2.511718 5.8125 3.769531 9.113281 3.769531 3.296875 0 6.597656-1.257813 9.109375-3.769531l15.234375-15.230469c5.023438-5.023437 5.023438-13.199219 0-18.222656l-.03125-.027344 56.730469-56.730469c16.277344 3.351563 33.042969 5.089844 49.957031 5.089844 16.941406 0 33.730469-1.742188 50.03125-5.101562l39.738282 39.734374c1.464843 1.464844 3.382812 2.199219 5.304687 2.199219 1.917969 0 3.835937-.734375 5.300781-2.199219 2.929688-2.929687 2.929688-7.675781 0-10.605468l-33.289062-33.289063c26.152344-7.382812 50.660156-19.046875 72.023437-34.535156 3.304688-2.394531 6.484375-4.863281 9.542969-7.386719l62.070312 62.066406-61.746093 61.746094-23.851563-23.851562c-2.929687-2.929688-7.675781-2.929688-10.605468 0-2.929688 2.925781-2.929688 7.675781 0 10.605468l37.914062 37.914063c11.4375 11.4375 26.457031 17.152344 41.480469 17.152344 15.019531 0 30.042969-5.714844 41.476562-17.152344 22.871094-22.871094 22.871094-60.085937 0-82.957031l-75.550781-75.554688c24.234375-23.636718 38.164062-51.148437 38.164062-76.789062 0-25.65625-13.945312-53.1875-38.210937-76.835938l63.71875-63.71875c.066406-.066406.125-.140625.1875-.207031.886719-.832031-.0625.066406 0 0zm1.085937 365.457031c-17.023437 17.023438-44.722656 17.023438-61.746093 0l-3.453125-3.457031 61.742187-61.742187 3.457031 3.453124c17.023438 17.023438 17.023438 44.722657 0 61.746094zm11.894532-465.511718c1.667968-.554688 2.8125.257812 3.347656.792968.53125.53125 1.34375 1.675782.789062 3.34375l-7.65625 22.964844c-11.605468-3.925781-16.894531-13.195312-19.21875-19.519531zm-36.984375 12.328124c4.207031 11.707032 13.375 23.792969 28.726562 28.996094l-15.128906 45.390625-14.433594-1.007812c-22.578125-1.574219-40.613281-19.058594-42.890625-41.574219l-1.6875-16.664062zm-101.792969 110.777344 51.738281-51.738281c4.738281 7.800781 11.164063 14.429687 18.769531 19.414063l-45.296874 45.296874c-8.074219-4.824218-16.5-9.15625-25.210938-12.972656zm42.441406-84.378906.699219 6.914062c.382813 3.78125 1.101563 7.449219 2.125 10.988282l-60.4375 60.433594c-5.160156-1.84375-10.40625-3.507813-15.714844-5.007813zm-357.785156 64.34375-20.074219-96.71875c-.238281-1.152344.324219-1.921875.679688-2.277344.296875-.296875.882812-.738281 1.734375-.738281.171875 0 97.261718 20.132813 97.261718 20.132813 1 .207031 1.765626.988281 1.949219 1.988281l6.425781 34.457031-51.53125 51.53125-34.453124-6.425781c-1.003907-.1875-1.785157-.949219-1.992188-1.949219zm72.816406-6.785156 23.257813-23.257813 12.238281 12.242188-46.511719 46.511719-12.242187-12.238282zm-5.621094 55.941406c-1.273437-1.273438-1.273437-3.351562 0-4.625l57.121094-57.121094c1.273438-1.273437 3.347656-1.273437 4.625 0l21.554688 21.554688c-26.203125 7.382812-50.761719 19.058594-72.164063 34.574218-3.269531 2.371094-6.414062 4.8125-9.445312 7.308594zm1.640626 175.453125c3.046874 2.507813 6.210937 4.960937 9.496093 7.347656.75.542969 1.511719 1.074219 2.269531 1.609375l-31.835937 31.835938-10.359375-10.363282zm-9.464844 51.398437 34.054687-34.054687c8.039063 4.859375 16.4375 9.21875 25.113281 13.070313l-40.074218 40.078124zm27.070312 72.761719-38.574218-38.570312c-2.925782-2.929688-7.675782-2.929688-10.605469 0-2.929688 2.929687-2.929688 7.679687 0 10.605469l29.433593 29.433593-24.402343 24.398438c-5.472657 5.476562-14.382813 5.476562-19.855469 0l-41.886719-41.886719c-5.472656-5.476562-5.472656-14.382812 0-19.855469l24.398438-24.402343 7.5625 7.5625c2.929687 2.929687 7.679687 2.929687 10.609375 0 2.929687-2.925782 2.929687-7.675782 0-10.605469l-16.703125-16.699219 12.242187-12.242188 3.820313 3.820313c.003906.003906.007812.011719.011719.015625.007812.003906.011718.007812.015624.011719l72.328126 72.328125c.003906.003906.003906.007812.007812.011718.003906 0 .007812.003907.011719.007813l3.824219 3.824219zm13.707032-31.984375-11.078126-11.078125 44.589844-44.59375c5.5 2 11.09375 3.796875 16.761719 5.394531zm300.292968-179.039062c0 27.460937-19.699218 58.136718-52.699218 82.066406-36.40625 26.398438-82.683594 40.9375-130.300782 40.9375-47.621094 0-93.898437-14.539062-130.304687-40.9375-32.996094-23.929688-52.699219-54.609375-52.699219-82.066406 0-27.457032 19.703125-58.136719 52.699219-82.0625 36.40625-26.398438 82.683593-40.9375 130.304687-40.9375 47.617188 0 93.894532 14.539062 130.300782 40.9375 33 23.925781 52.699218 54.605468 52.699218 82.0625zm-43.894531-94.207032c-1.023437-.746093-2.0625-1.476562-3.105469-2.203124l45.710938-45.710938c.328125-.328125.613281-.683594.867187-1.050781 4.839844 1.613281 9.941407 2.65625 15.238281 3.027343l3.808594.265626-53.019531 53.019531c-3.046875-2.507813-6.210937-4.964844-9.5-7.347657zm0 0"/><path d="m82.410156 61.28125c-5.847656-5.847656-15.363281-5.847656-21.214844 0-5.84375 5.851562-5.84375 15.367188.003907 21.214844 2.921875 2.925781 6.765625 4.386718 10.605469 4.386718 3.839843 0 7.683593-1.460937 10.605468-4.386718 5.847656-5.847656 5.847656-15.363282 0-21.214844zm0 0"/></svg>