<svg width="558" height="105" viewBox="0 0 558 105" fill="none" xmlns="http://www.w3.org/2000/svg">
<path d="M43.4177 99.0236C36.4697 99.0236 30.1689 97.4572 24.5151 94.3242C18.9295 91.1912 14.536 86.8663 11.3345 81.3496C8.13295 75.8328 6.5322 69.6691 6.5322 62.8582C6.5322 56.0474 8.13295 49.8837 11.3345 44.3669C14.536 38.8501 18.9295 34.5253 24.5151 31.3923C30.1689 28.2593 36.4697 26.6929 43.4177 26.6929C48.3221 26.6929 52.92 27.5101 57.2114 29.1447C61.5028 30.7112 65.1811 33.061 68.2464 36.1939L66.1007 38.4415C60.1745 32.7204 52.6475 29.8599 43.5198 29.8599C37.2531 29.8599 31.5653 31.3242 26.4565 34.2528C21.3477 37.1134 17.3288 41.0637 14.3997 46.1037C11.4707 51.1437 10.0062 56.7285 10.0062 62.8582C10.0062 68.988 11.4707 74.5728 14.3997 79.6128C17.3288 84.6528 21.3477 88.6372 26.4565 91.5658C31.5653 94.4263 37.2531 95.8566 43.5198 95.8566C52.5794 95.8566 60.1064 92.962 66.1007 87.1728L68.2464 89.4204C65.1811 92.5534 61.5028 94.9372 57.2114 96.5717C52.9881 98.2063 48.3902 99.0236 43.4177 99.0236ZM90.1007 27.1015H95.3116V93.9155H136.488V98.615H90.1007V27.1015ZM184.405 99.228C177.321 99.228 170.884 97.6615 165.094 94.5285C159.372 91.3274 154.877 86.9685 151.607 81.4518C148.405 75.935 146.805 69.7372 146.805 62.8582C146.805 55.9793 148.405 49.7815 151.607 44.2647C154.877 38.748 159.372 34.4231 165.094 31.2901C170.884 28.0891 177.321 26.4885 184.405 26.4885C191.49 26.4885 197.859 28.055 203.512 31.188C209.234 34.321 213.73 38.6799 216.999 44.2647C220.269 49.7815 221.904 55.9793 221.904 62.8582C221.904 69.7372 220.269 75.9691 216.999 81.5539C213.73 87.0707 209.234 91.3955 203.512 94.5285C197.859 97.6615 191.49 99.228 184.405 99.228ZM184.405 92.4853C190.059 92.4853 195.168 91.2253 199.732 88.7053C204.296 86.1172 207.872 82.5755 210.46 78.0804C213.049 73.5172 214.343 68.4431 214.343 62.8582C214.343 57.2734 213.049 52.2334 210.46 47.7383C207.872 43.175 204.296 39.6334 199.732 37.1134C195.168 34.5253 190.059 33.2312 184.405 33.2312C178.752 33.2312 173.609 34.5253 168.977 37.1134C164.413 39.6334 160.803 43.175 158.146 47.7383C155.558 52.2334 154.264 57.2734 154.264 62.8582C154.264 68.4431 155.558 73.5172 158.146 78.0804C160.803 82.5755 164.413 86.1172 168.977 88.7053C173.609 91.2253 178.752 92.4853 184.405 92.4853ZM271.65 99.4323C262.114 99.4323 254.689 96.708 249.375 91.2593C244.062 85.8107 241.405 77.9782 241.405 67.762V27.1015H251.624V67.3534C251.624 82.6777 258.333 90.3399 271.752 90.3399C278.291 90.3399 283.298 88.4669 286.772 84.7209C290.246 80.9069 291.983 75.1177 291.983 67.3534V27.1015H301.894V67.762C301.894 78.0463 299.237 85.9128 293.924 91.3615C288.611 96.742 281.186 99.4323 271.65 99.4323ZM325.805 27.1015H357.07C364.7 27.1015 371.477 28.5999 377.403 31.5966C383.33 34.5253 387.928 38.7139 391.197 44.1626C394.467 49.5431 396.102 55.775 396.102 62.8582C396.102 69.9415 394.467 76.2074 391.197 81.6561C387.928 87.0366 383.33 91.2253 377.403 94.222C371.477 97.1507 364.7 98.615 357.07 98.615H325.805V27.1015ZM356.457 87.3772C361.702 87.3772 366.3 86.3896 370.251 84.4145C374.27 82.3712 377.335 79.5107 379.447 75.8328C381.627 72.0869 382.717 67.762 382.717 62.8582C382.717 57.9545 381.627 53.6637 379.447 49.9858C377.335 46.2399 374.27 43.3793 370.251 41.4042C366.3 39.361 361.702 38.3393 356.457 38.3393H339.087V87.3772H356.457ZM469.276 82.9842V98.615H411.854V27.1015H467.948V42.7323H431.88V54.7874H463.657V69.9074H431.88V82.9842H469.276ZM513.915 80.6345H507.375V98.615H483.262V27.1015H517.696C524.303 27.1015 530.059 28.1912 534.963 30.3707C539.868 32.5501 543.648 35.6831 546.305 39.7696C548.962 43.8561 550.29 48.6237 550.29 54.0723C550.29 59.1804 549.132 63.6415 546.816 67.4555C544.5 71.2696 541.162 74.3004 536.803 76.548L551.822 98.615H526.073L513.915 80.6345ZM525.972 54.0723C525.972 51.4161 525.155 49.3728 523.52 47.9426C521.885 46.4442 519.432 45.695 516.162 45.695H507.375V62.4496H516.162C519.432 62.4496 521.885 61.7345 523.52 60.3042C525.155 58.8058 525.972 56.7285 525.972 54.0723Z" fill="black"/>
<path d="M204.35 62.4324L173.485 80.2504V44.6145L204.35 62.4324Z" fill="black"/>
</svg>
