<svg width="203" height="68" viewBox="0 0 203 68" fill="none" xmlns="http://www.w3.org/2000/svg">
<path d="M90.3925 9.11245H83.6083V5.89417H100.978V9.11245H94.1939V26.3741H90.3925V9.11245ZM111.676 26.6667C108.85 26.6667 106.647 25.8768 105.068 24.2969C103.489 22.6975 102.699 20.4154 102.699 17.4507V5.89417H106.5V17.3044C106.5 21.3224 108.235 23.3314 111.705 23.3314C115.156 23.3314 116.881 21.3224 116.881 17.3044V5.89417H120.624V17.4507C120.624 20.4154 119.835 22.6975 118.256 24.2969C116.696 25.8768 114.503 26.6667 111.676 26.6667ZM125.363 5.89417H129.165V23.1559H139.867V26.3741H125.363V5.89417ZM142.284 5.89417H146.085V23.1559H156.788V26.3741H142.284V5.89417ZM159.204 5.89417H163.006V26.3741H159.204V5.89417ZM183.309 23.1851V26.3741H167.957V5.89417H182.9V9.08319H171.759V14.408H181.642V17.5385H171.759V23.1851H183.309ZM104.428 41.9779V62.4579H100.627V53.6808H90.0416V62.4579H86.2401V41.9779H90.0416V50.4333H100.627V41.9779H104.428ZM124.681 59.2689V62.4579H109.329V41.9779H124.272V45.167H113.131V50.4918H123.014V53.6223H113.131V59.2689H124.681ZM128.333 41.9779H132.135V59.2396H142.837V62.4579H128.333V41.9779ZM160.606 59.2689V62.4579H145.254V41.9779H160.196V45.167H149.055V50.4918H158.939V53.6223H149.055V59.2689H160.606ZM182.447 41.9779V62.4579H179.319L168.031 48.5901V62.4579H164.259V41.9779H167.388L178.675 55.8458V41.9779H182.447ZM202.699 59.2689V62.4579H187.347V41.9779H202.29V45.167H191.149V50.4918H201.033V53.6223H191.149V59.2689H202.699Z" fill="white"/>
<path d="M33.4983 3.49384L26.8441 5.98769C25.3998 6.55923 17.6215 10.5702 13.5363 13.9368C8.42978 18.1452 8.73926 18.1452 5.33491 21.73C2.61144 24.598 1.16117 29.0557 1.00639 30.7702C0.851645 35.1344 3.48199 39.8103 11.6836 41.369C14.9332 41.8366 14.6238 41.9924 17.2543 41.9924C19.885 41.9924 23.1386 40.1221 23.9083 38.4075C12.8907 40.7767 7.04135 37.6802 5.64864 35.9138C3.84331 34.1473 2.11646 29.1492 9.04895 22.6653C17.7146 14.5603 20.6547 13.625 25.6065 10.9754C30.5582 8.32571 33.3434 7.5464 33.8076 7.39048C34.2719 7.23466 37.6248 6.09156 39.2238 5.67594C39.651 5.56493 40.2215 5.5131 41.6997 5.3642C43.2472 5.20838 44.0207 5.20838 44.0207 5.20838C44.4849 5.15644 45.2628 5.23956 45.8819 5.3642C46.5008 5.48894 46.8103 5.624 47.1299 6.12285L47.2745 6.45535L47.4292 7.07873C47.4292 7.85804 47.486 7.57283 46.9609 8.63745C46.346 9.88432 42.8861 15.3396 41.0808 17.8334C38.6049 21.2625 33.6222 28.1517 33.4983 28.2763C33.3436 28.4323 30.083 28.4353 29.3244 28.5881C28.5506 28.744 26.3802 29.2116 25.1423 29.8351C23.9043 30.4584 21.5832 33.8875 22.9759 32.9523C24.3686 32.0172 27.6182 31.5495 31.3319 31.5495C24.5233 42.7718 24.653 45.4031 24.5273 46.6684C24.3725 48.2271 24.9875 50.4092 25.1423 50.8767C25.266 51.2509 25.8128 52.1757 26.0707 52.5913L26.6897 53.5265L27.6182 54.4616C27.876 54.6176 28.4383 54.9292 28.6239 54.9292C28.8097 54.9292 29.8877 55.1371 30.4035 55.2409L30.0941 54.9292L29.7846 54.1499L29.6298 53.3706V52.5913V51.6561C29.6298 51.4067 29.733 50.7209 29.7846 50.4092L29.9393 49.6299L30.0941 48.5388L30.4035 47.6036C30.5273 47.2295 31.693 44.5383 32.2605 43.2394L34.891 38.4075C36.1806 36.1735 38.7597 31.7678 38.7597 32.0172C38.7597 32.2665 46.2905 32.9523 50.0559 33.264L45.7231 40.9014C44.9493 42.4082 43.1853 45.8579 42.3188 47.6036C41.4522 49.3493 40.8229 51.0327 40.6166 51.6561C40.4102 52.1237 39.8119 53.6511 39.0691 56.0203C38.3264 58.3895 39.1723 61.2677 39.6881 62.4107C39.8429 62.8264 40.369 63.8759 41.2356 64.7488C42.3188 65.8398 42.3188 65.6839 42.6282 65.9956C42.8758 66.245 43.763 66.6191 44.1757 66.7749L47.4292 67.0867C47.8935 67.0867 46.2004 66.805 45.5684 66.1515C45.4176 65.9956 45.2073 65.1644 45.1041 64.7488L44.9533 63.0342L45.2589 60.3846L45.5684 58.8258L46.4968 55.8644L48.3537 50.565L52.0676 42.6159L57.0193 33.1082L58.5668 32.9523L60.7332 32.173C61.0942 32.0172 62.033 31.5183 62.8995 30.7702C63.7661 30.0221 64.2923 28.4842 64.447 27.8088C63.3638 28.5881 61.1458 28.5881 59.4952 28.5881L59.65 28.4323L61.6656 25.1591L63.832 21.4183L65.2247 18.7686L66.1531 16.7424C66.3595 16.1189 67.0533 13.9554 67.0816 13.1575C67.2363 8.79327 63.832 6.14361 63.213 5.83186L63.5225 8.63745V10.0401C63.5225 11.1313 61.8203 14.872 59.2221 18.4569L56.4043 22.6653L52.996 28.2763H52.6865L44.0209 28.1205H41.2356L43.2472 25.1591L47.4253 17.9893L49.5917 13.9368L50.8296 10.9754C51.0359 10.0922 51.6033 8.16978 51.1391 6.45535C50.7429 4.99184 50.1075 3.85753 49.7464 3.49384C49.2821 3.07822 48.0439 1.62349 46.0323 1.15592L44.7943 1H43.0922L41.6997 1.15592L40.3068 1.46767L33.4983 3.49384Z" fill="white" stroke="white"/>
</svg>
