<svg width="321" height="321" viewBox="0 0 321 321" fill="none" xmlns="http://www.w3.org/2000/svg">
<path d="M116.136 257.906C113.909 258.321 112.936 259.366 113.215 261.033C113.492 262.701 114.744 263.259 116.968 262.701C119.196 262.146 120.168 261.171 119.888 259.781C119.612 258.253 118.361 257.626 116.136 257.906Z" fill="black"/>
<path d="M104.253 259.574C102.028 259.574 100.916 260.334 100.916 261.867C100.916 263.674 102.099 264.437 104.461 264.16C106.687 264.16 107.8 263.395 107.8 261.867C107.8 260.062 106.617 259.294 104.253 259.574Z" fill="black"/>
<path d="M87.978 258.943C87.4228 260.473 88.3272 261.514 90.6891 262.073C92.7748 262.903 94.0964 262.488 94.6516 260.82C95.0695 259.293 94.165 258.183 91.9405 257.483C89.854 256.929 88.5339 257.409 87.978 258.943Z" fill="black"/>
<path d="M303.334 17.9372C291.584 6.18928 277.439 0.314209 260.888 0.314209H60.6558C44.1102 0.314209 29.9602 6.18928 18.2093 17.9372C6.46128 29.6874 0.586182 43.8373 0.586182 60.3835V260.618C0.586182 277.165 6.46128 291.313 18.2093 303.061C29.9595 314.812 44.1102 320.687 60.6558 320.687H107.377C110.433 320.687 112.729 320.581 114.259 320.377C115.787 320.166 117.315 319.262 118.846 317.661C120.377 316.064 121.14 313.734 121.14 310.676C121.14 310.261 121.103 305.528 121.034 296.491C120.964 287.45 120.929 280.29 120.929 275.005L116.132 275.84C113.073 276.396 109.214 276.64 104.555 276.57C99.8988 276.5 95.0655 276.015 90.0605 275.111C85.0525 274.205 80.396 272.12 76.085 268.856C71.7762 265.585 68.7174 261.311 66.9093 256.028L64.8228 251.228C63.4326 248.033 61.2439 244.485 58.2537 240.595C55.2636 236.7 52.2398 234.057 49.181 232.667L47.7206 231.624C46.7483 230.929 45.8446 230.091 45.0096 229.119C44.176 228.144 43.5506 227.169 43.1335 226.199C42.7164 225.224 43.0626 224.424 44.176 223.796C45.2894 223.172 47.3035 222.862 50.225 222.862L54.3949 223.486C57.1769 224.042 60.6163 225.709 64.7206 228.491C68.8219 231.272 72.1934 234.887 74.8358 239.335C78.0356 245.038 81.8907 249.38 86.4121 252.37C90.9298 255.363 95.4848 256.858 100.073 256.858C104.661 256.858 108.623 256.51 111.962 255.818C115.297 255.121 118.426 254.075 121.347 252.685C122.598 243.37 126.006 236.205 131.566 231.2C123.641 230.365 116.515 229.115 110.186 227.445C103.861 225.775 97.3251 223.065 90.5821 219.309C83.8362 215.554 78.2402 210.899 73.7904 205.334C69.3413 199.768 65.69 192.469 62.8416 183.433C59.9917 174.393 58.5664 163.963 58.5664 152.145C58.5664 135.321 64.0609 120.996 75.0454 109.178C69.8994 96.5252 70.3853 82.3438 76.5044 66.6297C80.537 65.3776 86.5173 66.317 94.4423 69.446C102.369 72.5771 108.172 75.2546 111.859 77.4762C115.545 79.6985 118.499 81.5775 120.724 83.1087C133.658 79.4932 147.006 77.6858 160.771 77.6858C174.536 77.6858 187.886 79.4932 200.821 83.1087L208.747 78.103C214.172 74.7644 220.567 71.7056 227.937 68.9258C235.307 66.1454 240.938 65.3797 244.833 66.6319C251.088 82.346 251.647 96.5274 246.498 109.18C257.482 120.999 262.978 135.323 262.978 152.147C262.978 163.967 261.553 174.432 258.703 183.538C255.855 192.646 252.173 199.948 247.65 205.44C243.132 210.933 237.5 215.553 230.757 219.311C224.012 223.063 217.477 225.778 211.149 227.443C204.821 229.113 197.696 230.368 189.771 231.203C196.996 237.458 200.611 247.328 200.611 260.818V310.669C200.611 313.034 200.956 314.944 201.651 316.405C202.351 317.865 203.462 318.87 204.991 319.43C206.526 319.985 207.876 320.332 209.061 320.47C210.246 320.61 211.946 320.68 214.171 320.68H260.892C277.437 320.68 291.588 314.805 303.333 303.055C315.083 291.305 320.959 277.154 320.959 260.608V60.3835C320.957 43.8373 315.082 29.6852 303.334 17.9372Z" fill="black"/>
<path d="M63.9943 233.501C63.0219 234.193 63.1607 235.306 64.4121 236.836C65.8046 238.225 66.9157 238.435 67.7507 237.46C68.7231 236.768 68.5843 235.655 67.3307 234.123C65.9412 232.873 64.8293 232.664 63.9943 233.501Z" fill="black"/>
<path d="M57.1103 228.286C56.6939 229.262 57.1805 230.097 58.5707 230.789C59.6819 231.487 60.5885 231.349 61.2818 230.374C61.6982 229.399 61.2116 228.564 59.8214 227.866C58.4312 227.448 57.5275 227.589 57.1103 228.286Z" fill="black"/>
<path d="M70.4585 241.638C69.2056 242.331 69.2056 243.586 70.4585 245.391C71.7099 247.202 72.8897 247.687 74.0038 246.851C75.256 245.876 75.256 244.556 74.0038 242.886C72.8927 241.083 71.7099 240.661 70.4585 241.638Z" fill="black"/>
<path d="M77.7656 251.02C76.5135 252.135 76.7896 253.451 78.5999 254.985C80.2663 256.65 81.6573 256.86 82.7699 255.606C83.8833 254.496 83.6049 253.176 81.9356 251.646C80.2692 249.981 78.8782 249.77 77.7656 251.02Z" fill="black"/>
</svg>
