<svg width="316" height="316" viewBox="0 0 316 316" fill="none" xmlns="http://www.w3.org/2000/svg">
<path d="M185.942 137.702C179.677 128.931 169.403 123.167 157.875 123.167C146.348 123.167 136.074 128.931 129.809 137.702C125.799 143.466 123.293 150.482 123.293 158C123.293 177.045 138.83 192.582 157.875 192.582C176.92 192.582 192.457 177.045 192.457 158C192.457 150.482 189.951 143.466 185.942 137.702Z" fill="black"/>
<path d="M207.743 137.952C210.249 142.964 211.752 150.983 211.752 158C211.752 187.57 187.695 211.878 157.875 211.878C128.054 211.878 103.997 187.821 103.997 158C103.997 150.732 105.5 142.964 108.006 137.952H77.6843V218.393C77.6843 228.918 86.9563 238.19 97.4813 238.19H218.268C228.793 238.19 238.065 228.918 238.065 218.393V137.952H207.743Z" fill="black"/>
<path d="M229.044 82.3203H199.975V115.649H233.053V86.5804V82.0697L229.044 82.3203Z" fill="black"/>
<path d="M236.561 0.13501H79.1879C35.5845 0.13501 0 35.7195 0 79.323V236.947C0 280.3 35.5845 315.884 79.1879 315.884H236.812C280.416 315.884 316 280.3 316 236.696V79.323C315.749 35.7195 280.165 0.13501 236.561 0.13501ZM255.607 137.712V218.403C255.607 239.453 239.318 255.742 218.268 255.742H97.4814C76.4314 255.742 60.1427 239.453 60.1427 218.403V137.712V97.6164C60.1427 76.5664 76.4314 60.2778 97.4814 60.2778H218.268C239.318 60.2778 255.607 76.5664 255.607 97.6164V137.712Z" fill="black"/>
</svg>
