<svg width="321" height="321" viewBox="0 0 321 321" fill="none" xmlns="http://www.w3.org/2000/svg">
<path d="M303.047 17.623C291.302 5.87507 277.151 0 260.606 0H60.3723C43.8268 0 29.6761 5.87507 17.926 17.623C6.17805 29.3731 0.302979 43.5231 0.302979 60.0693V260.301C0.302979 276.846 6.17805 290.997 17.926 302.747C29.6761 314.497 43.8268 320.372 60.3723 320.372H260.604C277.149 320.372 291.3 314.497 303.045 302.747C314.795 290.997 320.67 276.846 320.67 260.301V60.0693C320.669 43.5231 314.794 29.371 303.047 17.623ZM97.9152 268.226H49.7341V123.474H97.9152V268.226ZM93.5377 96.6749C88.5327 101.472 81.9271 103.872 73.7223 103.872H73.5119C65.5869 103.872 59.1581 101.472 54.2203 96.6749C49.2818 91.8774 46.8141 85.9336 46.8141 78.8422C46.8141 71.612 49.3534 65.6317 54.4271 60.9029C59.5044 56.1755 66.0735 53.8107 74.1373 53.8107C82.2018 53.8107 88.6679 56.1755 93.5355 60.9029C98.4017 65.6317 100.905 71.612 101.043 78.8422C101.043 85.9307 98.5427 91.8745 93.5377 96.6749ZM271.241 268.226H223.06V190.846C223.06 169.018 214.998 158.101 198.867 158.101C192.75 158.101 187.602 159.804 183.432 163.211C179.257 166.616 176.13 170.753 174.047 175.624C173.072 178.124 172.587 182.016 172.587 187.299V268.225H124.406C124.823 180.903 124.823 132.651 124.406 123.473H172.587V143.909C182.717 128.07 197.102 120.134 215.763 120.134C232.449 120.134 245.869 125.628 256.019 136.611C266.17 147.596 271.244 163.798 271.244 185.206V268.226H271.241Z" fill="black"/>
</svg>
