<svg width="226" height="90" viewBox="0 0 226 90" fill="none" xmlns="http://www.w3.org/2000/svg">
<path d="M89.8056 5.55H82.8456V2.25H100.666V5.55H93.7056V23.25H89.8056V5.55ZM111.642 23.55C108.742 23.55 106.482 22.74 104.862 21.12C103.242 19.48 102.432 17.14 102.432 14.1V2.25H106.332V13.95C106.332 18.07 108.112 20.13 111.672 20.13C115.212 20.13 116.982 18.07 116.982 13.95V2.25H120.822V14.1C120.822 17.14 120.012 19.48 118.392 21.12C116.792 22.74 114.542 23.55 111.642 23.55ZM125.683 2.25H129.583V19.95H140.563V23.25H125.683V2.25ZM143.042 2.25H146.942V19.95H157.922V23.25H143.042V2.25ZM160.401 2.25H164.301V23.25H160.401V2.25ZM185.132 19.98V23.25H169.382V2.25H184.712V5.52H173.282V10.98H183.422V14.19H173.282V19.98H185.132ZM104.206 39.25V60.25H100.306V51.25H89.4456V60.25H85.5456V39.25H89.4456V47.92H100.306V39.25H104.206ZM124.983 56.98V60.25H109.233V39.25H124.563V42.52H113.133V47.98H123.273V51.19H113.133V56.98H124.983ZM128.73 39.25H132.63V56.95H143.61V60.25H128.73V39.25ZM161.839 56.98V60.25H146.089V39.25H161.419V42.52H149.989V47.98H160.129V51.19H149.989V56.98H161.839ZM184.247 39.25V60.25H181.037L169.457 46.03V60.25H165.587V39.25H168.797L180.377 53.47V39.25H184.247ZM205.024 56.98V60.25H189.274V39.25H204.604V42.52H193.174V47.98H203.314V51.19H193.174V56.98H205.024Z" fill="black"/>
<path d="M92.134 74.4225H87.832L88.138 72.8565H98.56L98.236 74.4225H93.934L91.72 85.4565H89.938L92.134 74.4225ZM97.6908 79.7685H102.533L102.227 81.2625H97.4028L97.6908 79.7685ZM109.873 85.6005C108.385 85.6005 107.221 85.2285 106.381 84.4845C105.553 83.7405 105.139 82.7085 105.139 81.3885C105.139 80.9925 105.187 80.5365 105.283 80.0205L106.705 72.8565H108.505L107.065 80.0025C106.981 80.4105 106.939 80.8065 106.939 81.1905C106.939 82.1145 107.203 82.8165 107.731 83.2965C108.259 83.7645 109.027 83.9985 110.035 83.9985C111.163 83.9985 112.063 83.6745 112.735 83.0265C113.419 82.3785 113.899 81.3645 114.175 79.9845L115.597 72.8565H117.361L115.921 80.1105C115.549 81.9345 114.853 83.3085 113.833 84.2325C112.825 85.1445 111.505 85.6005 109.873 85.6005ZM131.888 72.8565L129.368 85.4565H127.568L128.684 79.8765H121.448L120.332 85.4565H118.532L121.052 72.8565H122.852L121.772 78.2565H129.008L130.088 72.8565H131.888ZM133.427 79.7685H138.269L137.963 81.2625H133.139L133.427 79.7685ZM142.55 72.8565H144.35L142.136 83.8905H148.976L148.67 85.4565H140.03L142.55 72.8565ZM150.847 79.7685H155.689L155.383 81.2625H150.559L150.847 79.7685ZM159.065 81.2265V81.3345C159.065 82.2225 159.317 82.9005 159.821 83.3685C160.325 83.8245 161.081 84.0525 162.089 84.0525C162.677 84.0525 163.229 83.9565 163.745 83.7645C164.261 83.5605 164.693 83.2905 165.041 82.9545L165.779 84.1965C165.311 84.6285 164.741 84.9645 164.069 85.2045C163.397 85.4445 162.689 85.5645 161.945 85.5645C161.009 85.5645 160.199 85.3965 159.515 85.0605C158.831 84.7245 158.303 84.2445 157.931 83.6205C157.559 82.9965 157.373 82.2645 157.373 81.4245C157.373 80.3565 157.601 79.3965 158.057 78.5445C158.525 77.6925 159.167 77.0265 159.983 76.5465C160.811 76.0665 161.735 75.8265 162.755 75.8265C164.051 75.8265 165.083 76.1985 165.851 76.9425C166.631 77.6745 167.021 78.6765 167.021 79.9485C167.021 80.3325 166.979 80.7585 166.895 81.2265H159.065ZM162.683 77.2665C161.831 77.2665 161.099 77.5065 160.487 77.9865C159.875 78.4665 159.461 79.1265 159.245 79.9665H165.401C165.449 79.1145 165.221 78.4545 164.717 77.9865C164.225 77.5065 163.547 77.2665 162.683 77.2665ZM170.069 81.2265V81.3345C170.069 82.2225 170.321 82.9005 170.825 83.3685C171.329 83.8245 172.085 84.0525 173.093 84.0525C173.681 84.0525 174.233 83.9565 174.749 83.7645C175.265 83.5605 175.697 83.2905 176.045 82.9545L176.783 84.1965C176.315 84.6285 175.745 84.9645 175.073 85.2045C174.401 85.4445 173.693 85.5645 172.949 85.5645C172.013 85.5645 171.203 85.3965 170.519 85.0605C169.835 84.7245 169.307 84.2445 168.935 83.6205C168.563 82.9965 168.377 82.2645 168.377 81.4245C168.377 80.3565 168.605 79.3965 169.061 78.5445C169.529 77.6925 170.171 77.0265 170.987 76.5465C171.815 76.0665 172.739 75.8265 173.759 75.8265C175.055 75.8265 176.087 76.1985 176.855 76.9425C177.635 77.6745 178.025 78.6765 178.025 79.9485C178.025 80.3325 177.983 80.7585 177.899 81.2265H170.069ZM173.687 77.2665C172.835 77.2665 172.103 77.5065 171.491 77.9865C170.879 78.4665 170.465 79.1265 170.249 79.9665H176.405C176.453 79.1145 176.225 78.4545 175.721 77.9865C175.229 77.5065 174.551 77.2665 173.687 77.2665Z" fill="black"/>
<path d="M32.9234 3.43463L26.4793 5.84972C25.0806 6.40318 17.5479 10.2875 13.5916 13.5478C8.64635 17.6233 8.94606 17.6233 5.64921 21.095C3.01173 23.8724 1.60726 28.1893 1.45736 29.8497C1.3075 34.0761 3.85479 38.6044 11.7975 40.1139C14.9444 40.5667 14.6447 40.7176 17.1923 40.7176C19.7399 40.7176 22.8908 38.9063 23.6362 37.2459C12.9664 39.5403 7.30176 36.5415 5.95303 34.8309C4.2047 33.1202 2.53238 28.2799 9.24597 22.0007C17.638 14.1516 20.4852 13.2459 25.2807 10.6799C30.0761 8.11387 32.7733 7.35915 33.2229 7.20821C33.6725 7.05727 36.9195 5.95035 38.4681 5.54783C38.8817 5.44031 39.4343 5.39013 40.8658 5.24595C42.3644 5.095 43.1134 5.095 43.1134 5.095C43.563 5.04469 44.3164 5.12519 44.9158 5.24595C45.5153 5.3667 45.815 5.49752 46.1244 5.98064L46.2645 6.30255L46.4144 6.90632C46.4144 7.66104 46.4693 7.38483 45.9609 8.41576C45.3654 9.62331 42.0147 14.9063 40.2664 17.3214C37.8686 20.6422 33.0432 27.3139 32.9234 27.4346C32.7735 27.5856 29.6159 27.5885 28.8811 27.7365C28.1319 27.8875 26.03 28.3403 24.8311 28.9441C23.6323 29.5478 21.3844 32.8686 22.7331 31.9629C24.0818 31.0573 27.2288 30.6044 30.8254 30.6044C24.2317 41.4724 24.3572 44.0206 24.2356 45.2459C24.0857 46.7554 24.6813 48.8686 24.8311 49.3214C24.951 49.6837 25.4805 50.5793 25.7303 50.9818L26.3297 51.8875L27.2288 52.7931C27.4786 52.9441 28.0231 53.2459 28.2029 53.2459C28.3827 53.2459 29.4267 53.4472 29.9263 53.5478L29.6266 53.2459L29.3268 52.4912L29.177 51.7365V50.9818V50.0761C29.177 49.8346 29.2769 49.1705 29.3268 48.8686L29.4767 48.1139L29.6266 47.0573L29.9263 46.1516C30.0462 45.7893 31.1751 43.1831 31.7245 41.9252L34.2721 37.2459C35.5209 35.0824 38.0185 30.8158 38.0185 31.0573C38.0185 31.2988 45.3116 31.9629 48.9581 32.2648L44.7621 39.661C44.0128 41.1202 42.3045 44.461 41.4653 46.1516C40.6261 47.8422 40.0166 49.4724 39.8168 50.0761C39.617 50.529 39.0376 52.0082 38.3183 54.3026C37.5989 56.5969 38.4182 59.3843 38.9177 60.4912C39.0675 60.8937 39.5771 61.9101 40.4163 62.7554C41.4653 63.812 41.4653 63.661 41.765 63.9629C42.0047 64.2044 42.8639 64.5667 43.2635 64.7176L46.4144 65.0195C46.864 65.0195 45.2243 64.7467 44.6122 64.1139C44.4663 63.9629 44.2626 63.1579 44.1627 62.7554L44.0167 61.095L44.3125 58.529L44.6122 57.0195L45.5114 54.1516L47.3097 49.0195L50.9062 41.3214L55.7017 32.1139L57.2002 31.9629L59.2982 31.2082C59.6479 31.0573 60.557 30.5742 61.3962 29.8497C62.2354 29.1252 62.7449 27.6359 62.8948 26.9818C61.8458 27.7365 59.6978 27.7365 58.0994 27.7365L58.2492 27.5856L60.2012 24.4158L62.2992 20.7931L63.6479 18.2271L64.5471 16.2648C64.7469 15.661 65.4188 13.5658 65.4462 12.7931C65.5961 8.5667 62.2992 6.00066 61.6998 5.69878L61.9995 8.41576V9.77425C61.9995 10.8309 60.3511 14.4535 57.8349 17.9252L55.1061 22.0007L51.8054 27.4346H51.5057L43.1137 27.2837H40.4163L42.3644 24.4158L46.4105 17.4724L48.5085 13.5478L49.7074 10.6799C49.9072 9.82456 50.4567 7.96293 50.0071 6.30255C49.6234 4.88527 49.0081 3.78683 48.6584 3.43463C48.2088 3.03211 47.0097 1.6233 45.0616 1.17047L43.8627 1.01953H42.2143L40.8658 1.17047L39.5169 1.47236L32.9234 3.43463Z" fill="black" stroke="black"/>
</svg>
