<svg width="226" height="90" viewBox="0 0 226 90" fill="none" xmlns="http://www.w3.org/2000/svg">
<path d="M89.8056 5.9228H82.8456V2.6228H100.666V5.9228H93.7056V23.6228H89.8056V5.9228ZM111.642 23.9228C108.742 23.9228 106.482 23.1128 104.862 21.4928C103.242 19.8528 102.432 17.5128 102.432 14.4728V2.6228H106.332V14.3228C106.332 18.4428 108.112 20.5028 111.672 20.5028C115.212 20.5028 116.982 18.4428 116.982 14.3228V2.6228H120.822V14.4728C120.822 17.5128 120.012 19.8528 118.392 21.4928C116.792 23.1128 114.542 23.9228 111.642 23.9228ZM125.683 2.6228H129.583V20.3228H140.563V23.6228H125.683V2.6228ZM143.042 2.6228H146.942V20.3228H157.922V23.6228H143.042V2.6228ZM160.401 2.6228H164.301V23.6228H160.401V2.6228ZM185.132 20.3528V23.6228H169.382V2.6228H184.712V5.8928H173.282V11.3528H183.422V14.5628H173.282V20.3528H185.132ZM104.206 39.6228V60.6228H100.306V51.6228H89.4456V60.6228H85.5456V39.6228H89.4456V48.2928H100.306V39.6228H104.206ZM124.983 57.3528V60.6228H109.233V39.6228H124.563V42.8928H113.133V48.3528H123.273V51.5628H113.133V57.3528H124.983ZM128.73 39.6228H132.63V57.3228H143.61V60.6228H128.73V39.6228ZM161.839 57.3528V60.6228H146.089V39.6228H161.419V42.8928H149.989V48.3528H160.129V51.5628H149.989V57.3528H161.839ZM184.247 39.6228V60.6228H181.037L169.457 46.4028V60.6228H165.587V39.6228H168.797L180.377 53.8428V39.6228H184.247ZM205.024 57.3528V60.6228H189.274V39.6228H204.604V42.8928H193.174V48.3528H203.314V51.5628H193.174V57.3528H205.024Z" fill="white"/>
<path d="M92.134 74.7953H87.832L88.138 73.2293H98.56L98.236 74.7953H93.934L91.72 85.8293H89.938L92.134 74.7953ZM97.6908 80.1413H102.533L102.227 81.6353H97.4028L97.6908 80.1413ZM109.873 85.9733C108.385 85.9733 107.221 85.6013 106.381 84.8573C105.553 84.1133 105.139 83.0813 105.139 81.7613C105.139 81.3653 105.187 80.9093 105.283 80.3933L106.705 73.2293H108.505L107.065 80.3753C106.981 80.7833 106.939 81.1793 106.939 81.5633C106.939 82.4873 107.203 83.1893 107.731 83.6693C108.259 84.1373 109.027 84.3713 110.035 84.3713C111.163 84.3713 112.063 84.0473 112.735 83.3993C113.419 82.7513 113.899 81.7373 114.175 80.3573L115.597 73.2293H117.361L115.921 80.4833C115.549 82.3073 114.853 83.6813 113.833 84.6053C112.825 85.5173 111.505 85.9733 109.873 85.9733ZM131.888 73.2293L129.368 85.8293H127.568L128.684 80.2493H121.448L120.332 85.8293H118.532L121.052 73.2293H122.852L121.772 78.6293H129.008L130.088 73.2293H131.888ZM133.427 80.1413H138.269L137.963 81.6353H133.139L133.427 80.1413ZM142.55 73.2293H144.35L142.136 84.2633H148.976L148.67 85.8293H140.03L142.55 73.2293ZM150.847 80.1413H155.689L155.383 81.6353H150.559L150.847 80.1413ZM159.065 81.5993V81.7073C159.065 82.5953 159.317 83.2733 159.821 83.7413C160.325 84.1973 161.081 84.4253 162.089 84.4253C162.677 84.4253 163.229 84.3293 163.745 84.1373C164.261 83.9333 164.693 83.6633 165.041 83.3273L165.779 84.5693C165.311 85.0013 164.741 85.3373 164.069 85.5773C163.397 85.8173 162.689 85.9373 161.945 85.9373C161.009 85.9373 160.199 85.7693 159.515 85.4333C158.831 85.0973 158.303 84.6173 157.931 83.9933C157.559 83.3693 157.373 82.6373 157.373 81.7973C157.373 80.7293 157.601 79.7693 158.057 78.9173C158.525 78.0653 159.167 77.3993 159.983 76.9193C160.811 76.4393 161.735 76.1993 162.755 76.1993C164.051 76.1993 165.083 76.5713 165.851 77.3153C166.631 78.0473 167.021 79.0493 167.021 80.3213C167.021 80.7053 166.979 81.1313 166.895 81.5993H159.065ZM162.683 77.6393C161.831 77.6393 161.099 77.8793 160.487 78.3593C159.875 78.8393 159.461 79.4993 159.245 80.3393H165.401C165.449 79.4873 165.221 78.8273 164.717 78.3593C164.225 77.8793 163.547 77.6393 162.683 77.6393ZM170.069 81.5993V81.7073C170.069 82.5953 170.321 83.2733 170.825 83.7413C171.329 84.1973 172.085 84.4253 173.093 84.4253C173.681 84.4253 174.233 84.3293 174.749 84.1373C175.265 83.9333 175.697 83.6633 176.045 83.3273L176.783 84.5693C176.315 85.0013 175.745 85.3373 175.073 85.5773C174.401 85.8173 173.693 85.9373 172.949 85.9373C172.013 85.9373 171.203 85.7693 170.519 85.4333C169.835 85.0973 169.307 84.6173 168.935 83.9933C168.563 83.3693 168.377 82.6373 168.377 81.7973C168.377 80.7293 168.605 79.7693 169.061 78.9173C169.529 78.0653 170.171 77.3993 170.987 76.9193C171.815 76.4393 172.739 76.1993 173.759 76.1993C175.055 76.1993 176.087 76.5713 176.855 77.3153C177.635 78.0473 178.025 79.0493 178.025 80.3213C178.025 80.7053 177.983 81.1313 177.899 81.5993H170.069ZM173.687 77.6393C172.835 77.6393 172.103 77.8793 171.491 78.3593C170.879 78.8393 170.465 79.4993 170.249 80.3393H176.405C176.453 79.4873 176.225 78.8273 175.721 78.3593C175.229 77.8793 174.551 77.6393 173.687 77.6393Z" fill="white"/>
<path d="M32.9234 3.80743L26.4793 6.22252C25.0806 6.77598 17.5479 10.6603 13.5916 13.9206C8.64635 17.9961 8.94606 17.9961 5.64921 21.4678C3.01173 24.2452 1.60726 28.5621 1.45736 30.2225C1.3075 34.4489 3.85479 38.9772 11.7975 40.4867C14.9444 40.9395 14.6447 41.0904 17.1923 41.0904C19.7399 41.0904 22.8908 39.2791 23.6362 37.6188C12.9664 39.9131 7.30176 36.9143 5.95303 35.2037C4.2047 33.493 2.53238 28.6527 9.24597 22.3735C17.638 14.5244 20.4852 13.6187 25.2807 11.0527C30.0761 8.48667 32.7733 7.73196 33.2229 7.58101C33.6725 7.43007 36.9195 6.32315 38.4681 5.92064C38.8817 5.81311 39.4343 5.76293 40.8658 5.61875C42.3644 5.46781 43.1134 5.46781 43.1134 5.46781C43.563 5.41749 44.3164 5.49799 44.9158 5.61875C45.5153 5.7395 45.815 5.87032 46.1244 6.35344L46.2645 6.67535L46.4144 7.27913C46.4144 8.03384 46.4693 7.75764 45.9609 8.78856C45.3654 9.99611 42.0147 15.2791 40.2664 17.6942C37.8686 21.015 33.0432 27.6867 32.9234 27.8074C32.7735 27.9584 29.6159 27.9613 28.8811 28.1093C28.1319 28.2603 26.03 28.7131 24.8311 29.3169C23.6323 29.9206 21.3844 33.2414 22.7331 32.3357C24.0818 31.4301 27.2288 30.9772 30.8254 30.9772C24.2317 41.8452 24.3572 44.3934 24.2356 45.6188C24.0857 47.1282 24.6813 49.2414 24.8311 49.6942C24.951 50.0565 25.4805 50.9521 25.7303 51.3546L26.3297 52.2603L27.2288 53.1659C27.4786 53.3169 28.0231 53.6188 28.2029 53.6188C28.3827 53.6188 29.4267 53.82 29.9263 53.9206L29.6266 53.6188L29.3268 52.864L29.177 52.1093V51.3546V50.4489C29.177 50.2074 29.2769 49.5433 29.3268 49.2414L29.4767 48.4867L29.6266 47.4301L29.9263 46.5244C30.0462 46.1621 31.1751 43.5559 31.7245 42.298L34.2721 37.6188C35.5209 35.4552 38.0185 31.1886 38.0185 31.4301C38.0185 31.6716 45.3116 32.3357 48.9581 32.6376L44.7621 40.0338C44.0128 41.493 42.3045 44.8338 41.4653 46.5244C40.6261 48.215 40.0166 49.8452 39.8168 50.4489C39.617 50.9018 39.0376 52.381 38.3183 54.6754C37.5989 56.9697 38.4182 59.7571 38.9177 60.864C39.0675 61.2665 39.5771 62.2829 40.4163 63.1282C41.4653 64.1848 41.4653 64.0338 41.765 64.3357C42.0047 64.5772 42.8639 64.9395 43.2635 65.0904L46.4144 65.3923C46.864 65.3923 45.2243 65.1195 44.6122 64.4867C44.4663 64.3357 44.2626 63.5307 44.1627 63.1282L44.0167 61.4678L44.3125 58.9018L44.6122 57.3923L45.5114 54.5244L47.3097 49.3923L50.9062 41.6942L55.7017 32.4867L57.2002 32.3357L59.2982 31.581C59.6479 31.4301 60.557 30.9471 61.3962 30.2225C62.2354 29.498 62.7449 28.0087 62.8948 27.3546C61.8458 28.1093 59.6978 28.1093 58.0994 28.1093L58.2492 27.9584L60.2012 24.7886L62.2992 21.1659L63.6479 18.5999L64.5471 16.6376C64.7469 16.0338 65.4188 13.9386 65.4462 13.1659C65.5961 8.9395 62.2992 6.37347 61.6998 6.07158L61.9995 8.78856V10.1471C61.9995 11.2037 60.3511 14.8263 57.8349 18.298L55.1061 22.3735L51.8054 27.8074H51.5057L43.1137 27.6565H40.4163L42.3644 24.7886L46.4105 17.8452L48.5085 13.9206L49.7074 11.0527C49.9072 10.1974 50.4567 8.33573 50.0071 6.67535C49.6234 5.25807 49.0081 4.15963 48.6584 3.80743C48.2088 3.40491 47.0097 1.99611 45.0616 1.54328L43.8627 1.39233H42.2143L40.8658 1.54328L39.5169 1.84516L32.9234 3.80743Z" fill="white" stroke="white"/>
</svg>
