<svg width="145" height="146" viewBox="0 0 145 146" fill="none" xmlns="http://www.w3.org/2000/svg">
<path d="M71.124 6.87962L56.7699 12.2592C53.6542 13.4921 36.8751 22.1443 28.0626 29.4068C17.047 38.4849 17.7146 38.4849 10.3709 46.2181C4.49592 52.4046 1.36745 62.0207 1.03356 65.7192C0.699753 75.1335 6.37384 85.2203 24.0661 88.5826C31.076 89.5913 30.4084 89.9275 36.0831 89.9275C41.7578 89.9275 48.7765 85.8928 50.4369 82.1943C26.6699 87.3049 14.052 80.6252 11.0477 76.8147C7.15326 73.0041 3.42817 62.2225 18.3827 48.2354C37.0758 30.7517 43.4181 28.7343 54.0999 23.0185C64.7817 17.3026 70.7898 15.6215 71.7912 15.2853C72.7926 14.949 80.0255 12.4834 83.4748 11.5868C84.3963 11.3473 85.6271 11.2355 88.8158 10.9143C92.1539 10.5781 93.8224 10.5781 93.8224 10.5781C94.8238 10.466 96.502 10.6454 97.8372 10.9143C99.1725 11.1833 99.8401 11.4747 100.529 12.5509L100.841 13.2679L101.175 14.6128C101.175 16.294 101.298 15.6787 100.165 17.9751C98.8387 20.6649 91.3749 32.4328 87.4805 37.8124C82.1396 45.2094 71.3911 60.0706 71.124 60.3396C70.7902 60.6758 63.7567 60.6823 62.12 61.012C60.451 61.3483 55.769 62.3569 53.0986 63.7018C50.4281 65.0467 45.4211 72.4437 48.4253 70.4264C51.4296 68.409 58.4395 67.4003 66.4508 67.4003C51.7634 91.6086 52.043 97.2848 51.772 100.014C51.4382 103.377 52.7648 108.084 53.0986 109.092C53.3656 109.899 54.5451 111.894 55.1014 112.791L56.4367 114.808L58.4395 116.826C58.9958 117.162 60.2087 117.834 60.6092 117.834C61.0098 117.834 63.3353 118.283 64.448 118.507L63.7804 117.834L63.1128 116.153L62.779 114.472V112.791V110.774C62.779 110.236 63.0015 108.756 63.1128 108.084L63.4466 106.403L63.7804 104.049L64.448 102.032C64.715 101.225 67.2297 95.4192 68.4537 92.6173L74.1284 82.1943C76.9101 77.375 82.4735 67.871 82.4735 68.409C82.4735 68.947 98.7188 70.4264 106.841 71.0988L97.4948 87.5739C95.8258 90.8241 92.0204 98.2659 90.1511 102.032C88.2818 105.797 86.9243 109.429 86.4792 110.774C86.0341 111.782 84.7434 115.077 83.1411 120.188C81.5389 125.298 83.3637 131.507 84.4764 133.973C84.8102 134.87 85.9451 137.134 87.8144 139.017C90.1511 141.37 90.1511 141.034 90.8187 141.706C91.3528 142.244 93.2666 143.051 94.1568 143.387L101.175 144.06C102.177 144.06 98.5244 143.452 97.161 142.043C96.8358 141.706 96.3821 139.913 96.1596 139.017L95.8344 135.318L96.4934 129.602L97.161 126.24L99.1638 119.852L103.17 108.42L111.181 91.2724L121.863 70.7626L125.201 70.4264L129.874 68.7452C130.653 68.409 132.678 67.3331 134.547 65.7192C136.417 64.1053 137.552 60.7879 137.885 59.3309C135.549 61.012 130.764 61.012 127.204 61.012L127.537 60.6758L131.885 53.6151L136.559 45.5456L139.563 39.8298L141.566 35.4588C142.011 34.1139 143.508 29.4469 143.569 27.7256C143.902 18.3113 136.559 12.5955 135.223 11.923L135.891 17.9751V21.0011C135.891 23.3547 132.219 31.4241 126.614 39.1573L120.536 48.2354L113.184 60.3396H112.516L93.8229 60.0034H87.8144L92.1539 53.6151L101.167 38.1487L105.84 29.4068L108.51 23.0185C108.955 21.1132 110.179 16.9664 109.178 13.2679C108.323 10.1109 106.953 7.66415 106.174 6.87962C105.172 5.98302 102.501 2.8449 98.1619 1.83623L95.4914 1.5H91.8196L88.8158 1.83623L85.8111 2.50868L71.124 6.87962Z" fill="white" stroke="black" stroke-width="2"/>
</svg>
