<svg width="203" height="68" viewBox="0 0 203 68" fill="none" xmlns="http://www.w3.org/2000/svg">
<path d="M90.3923 9.02578H83.6082V5.8075H100.977V9.02578H94.1937V26.2875H90.3923V9.02578ZM111.676 26.58C108.849 26.58 106.646 25.7901 105.067 24.2102C103.488 22.6108 102.699 20.3288 102.699 17.3641V5.8075H106.5V17.2178C106.5 21.2358 108.235 23.2447 111.705 23.2447C115.156 23.2447 116.881 21.2358 116.881 17.2178V5.8075H120.624V17.3641C120.624 20.3288 119.835 22.6108 118.256 24.2102C116.696 25.7901 114.503 26.58 111.676 26.58ZM125.363 5.8075H129.165V23.0692H139.867V26.2875H125.363V5.8075ZM142.284 5.8075H146.085V23.0692H156.788V26.2875H142.284V5.8075ZM159.204 5.8075H163.005V26.2875H159.204V5.8075ZM183.309 23.0985V26.2875H167.957V5.8075H182.9V8.99652H171.758V14.3213H181.642V17.4518H171.758V23.0985H183.309ZM104.428 41.8913V62.3713H100.627V53.5941H90.0414V62.3713H86.2399V41.8913H90.0414V50.3466H100.627V41.8913H104.428ZM124.681 59.1822V62.3713H109.329V41.8913H124.272V45.0803H113.13V50.4051H123.014V53.5356H113.13V59.1822H124.681ZM128.333 41.8913H132.135V59.153H142.837V62.3713H128.333V41.8913ZM160.606 59.1822V62.3713H145.254V41.8913H160.196V45.0803H149.055V50.4051H158.939V53.5356H149.055V59.1822H160.606ZM182.447 41.8913V62.3713H179.318L168.031 48.5034V62.3713H164.259V41.8913H167.388L178.675 55.7592V41.8913H182.447ZM202.699 59.1822V62.3713H187.347V41.8913H202.29V45.0803H191.149V50.4051H201.032V53.5356H191.149V59.1822H202.699Z" fill="white"/>
<path d="M33.4982 3.40717L26.844 5.90102C25.3996 6.47256 17.6213 10.4835 13.5362 13.8501C8.42959 18.0585 8.73908 18.0585 5.33473 21.6434C2.61126 24.5113 1.16098 28.969 1.00621 30.6835C0.851462 35.0477 3.48181 39.7237 11.6835 41.2824C14.9331 41.7499 14.6236 41.9058 17.2542 41.9058C19.8848 41.9058 23.1385 40.0354 23.9082 38.3209C12.8905 40.6901 7.04116 37.5935 5.64846 35.8271C3.84312 34.0606 2.11628 29.0625 9.04876 22.5786C17.7144 14.4736 20.6545 13.5384 25.6063 10.8887C30.558 8.23904 33.3432 7.45973 33.8074 7.30381C34.2717 7.14799 37.6247 6.00489 39.2236 5.58927C39.6508 5.47826 40.2214 5.42643 41.6995 5.27753C43.247 5.12171 44.0205 5.12171 44.0205 5.12171C44.4847 5.06977 45.2626 5.15289 45.8817 5.27753C46.5006 5.40227 46.8101 5.53733 47.1297 6.03618L47.2744 6.36868L47.429 6.99206C47.429 7.77137 47.4858 7.48616 46.9608 8.55078C46.3458 9.79765 42.8859 15.2529 41.0806 17.7467C38.6047 21.1758 33.622 28.065 33.4982 28.1897C33.3434 28.3456 30.0828 28.3486 29.3242 28.5014C28.5504 28.6573 26.38 29.1249 25.1421 29.7484C23.9041 30.3718 21.583 33.8008 22.9757 32.8656C24.3684 31.9305 27.618 31.4628 31.3318 31.4628C24.5231 42.6852 24.6528 45.3164 24.5271 46.5817C24.3723 48.1404 24.9873 50.3225 25.1421 50.7901C25.2658 51.1642 25.8126 52.089 26.0705 52.5046L26.6895 53.4398L27.618 54.375C27.8758 54.5309 28.4381 54.8425 28.6238 54.8425C28.8095 54.8425 29.8876 55.0504 30.4033 55.1543L30.0939 54.8425L29.7844 54.0632L29.6296 53.2839V52.5046V51.5694C29.6296 51.32 29.7328 50.6343 29.7844 50.3225L29.9391 49.5432L30.0939 48.4522L30.4033 47.5169C30.5272 47.1428 31.6929 44.4516 32.2603 43.1527L34.8908 38.3209C36.1805 36.0868 38.7595 31.6811 38.7595 31.9305C38.7595 32.1799 46.2903 32.8656 50.0557 33.1774L45.7229 40.8147C44.9491 42.3215 43.1851 45.7712 42.3186 47.5169C41.452 49.2626 40.8227 50.946 40.6164 51.5694C40.41 52.0371 39.8117 53.5645 39.069 55.9337C38.3262 58.3028 39.1721 61.1811 39.6879 62.3241C39.8427 62.7397 40.3688 63.7892 41.2354 64.6621C42.3186 65.7531 42.3186 65.5972 42.628 65.909C42.8757 66.1583 43.7628 66.5324 44.1755 66.6883L47.429 67C47.8933 67 46.2002 66.7183 45.5682 66.0649C45.4174 65.909 45.2071 65.0777 45.1039 64.6621L44.9532 62.9475L45.2587 60.2979L45.5682 58.7392L46.4966 55.7778L48.3535 50.4783L52.0674 42.5292L57.0191 33.0215L58.5666 32.8656L60.733 32.0863C61.094 31.9305 62.0329 31.4316 62.8993 30.6835C63.7659 29.9354 64.2921 28.3975 64.4468 27.7221C63.3636 28.5014 61.1456 28.5014 59.495 28.5014L59.6498 28.3456L61.6655 25.0724L63.8319 21.3316L65.2245 18.682L66.153 16.6557C66.3593 16.0322 67.0531 13.8687 67.0814 13.0708C67.2362 8.7066 63.8319 6.05694 63.2128 5.74519L63.5223 8.55078V9.95347C63.5223 11.0446 61.8201 14.7853 59.2219 18.3702L56.4041 22.5786L52.9958 28.1897H52.6863L44.0207 28.0339H41.2354L43.247 25.0724L47.4251 17.9027L49.5915 13.8501L50.8294 10.8887C51.0357 10.0055 51.6031 8.08311 51.1389 6.36868C50.7427 4.90517 50.1073 3.77086 49.7462 3.40717C49.2819 2.99155 48.0438 1.53682 46.0321 1.06925L44.7941 0.91333H43.092L41.6995 1.06925L40.3066 1.381L33.4982 3.40717Z" fill="white" stroke="white"/>
</svg>
