<svg width="226" height="90" viewBox="0 0 226 90" fill="none" xmlns="http://www.w3.org/2000/svg">
<path d="M89.3056 6.05H82.3456V2.75H100.166V6.05H93.2056V23.75H89.3056V6.05ZM111.142 24.05C108.242 24.05 105.982 23.24 104.362 21.62C102.742 19.98 101.932 17.64 101.932 14.6V2.75H105.832V14.45C105.832 18.57 107.612 20.63 111.172 20.63C114.712 20.63 116.482 18.57 116.482 14.45V2.75H120.322V14.6C120.322 17.64 119.512 19.98 117.892 21.62C116.292 23.24 114.042 24.05 111.142 24.05ZM125.183 2.75H129.083V20.45H140.063V23.75H125.183V2.75ZM142.542 2.75H146.442V20.45H157.422V23.75H142.542V2.75ZM159.901 2.75H163.801V23.75H159.901V2.75ZM184.632 20.48V23.75H168.882V2.75H184.212V6.02H172.782V11.48H182.922V14.69H172.782V20.48H184.632ZM103.706 39.75V60.75H99.8056V51.75H88.9456V60.75H85.0456V39.75H88.9456V48.42H99.8056V39.75H103.706ZM124.483 57.48V60.75H108.733V39.75H124.063V43.02H112.633V48.48H122.773V51.69H112.633V57.48H124.483ZM128.23 39.75H132.13V57.45H143.11V60.75H128.23V39.75ZM161.339 57.48V60.75H145.589V39.75H160.919V43.02H149.489V48.48H159.629V51.69H149.489V57.48H161.339ZM183.747 39.75V60.75H180.537L168.957 46.53V60.75H165.087V39.75H168.297L179.877 53.97V39.75H183.747ZM204.524 57.48V60.75H188.774V39.75H204.104V43.02H192.674V48.48H202.814V51.69H192.674V57.48H204.524Z" fill="white"/>
<path d="M91.634 74.9225H87.332L87.638 73.3565H98.06L97.736 74.9225H93.434L91.22 85.9565H89.438L91.634 74.9225ZM97.1908 80.2685H102.033L101.727 81.7625H96.9028L97.1908 80.2685ZM109.373 86.1005C107.885 86.1005 106.721 85.7285 105.881 84.9845C105.053 84.2405 104.639 83.2085 104.639 81.8885C104.639 81.4925 104.687 81.0365 104.783 80.5205L106.205 73.3565H108.005L106.565 80.5025C106.481 80.9105 106.439 81.3065 106.439 81.6905C106.439 82.6145 106.703 83.3165 107.231 83.7965C107.759 84.2645 108.527 84.4985 109.535 84.4985C110.663 84.4985 111.563 84.1745 112.235 83.5265C112.919 82.8785 113.399 81.8645 113.675 80.4845L115.097 73.3565H116.861L115.421 80.6105C115.049 82.4345 114.353 83.8085 113.333 84.7325C112.325 85.6445 111.005 86.1005 109.373 86.1005ZM131.388 73.3565L128.868 85.9565H127.068L128.184 80.3765H120.948L119.832 85.9565H118.032L120.552 73.3565H122.352L121.272 78.7565H128.508L129.588 73.3565H131.388ZM132.927 80.2685H137.769L137.463 81.7625H132.639L132.927 80.2685ZM142.05 73.3565H143.85L141.636 84.3905H148.476L148.17 85.9565H139.53L142.05 73.3565ZM150.347 80.2685H155.189L154.883 81.7625H150.059L150.347 80.2685ZM158.565 81.7265V81.8345C158.565 82.7225 158.817 83.4005 159.321 83.8685C159.825 84.3245 160.581 84.5525 161.589 84.5525C162.177 84.5525 162.729 84.4565 163.245 84.2645C163.761 84.0605 164.193 83.7905 164.541 83.4545L165.279 84.6965C164.811 85.1285 164.241 85.4645 163.569 85.7045C162.897 85.9445 162.189 86.0645 161.445 86.0645C160.509 86.0645 159.699 85.8965 159.015 85.5605C158.331 85.2245 157.803 84.7445 157.431 84.1205C157.059 83.4965 156.873 82.7645 156.873 81.9245C156.873 80.8565 157.101 79.8965 157.557 79.0445C158.025 78.1925 158.667 77.5265 159.483 77.0465C160.311 76.5665 161.235 76.3265 162.255 76.3265C163.551 76.3265 164.583 76.6985 165.351 77.4425C166.131 78.1745 166.521 79.1765 166.521 80.4485C166.521 80.8325 166.479 81.2585 166.395 81.7265H158.565ZM162.183 77.7665C161.331 77.7665 160.599 78.0065 159.987 78.4865C159.375 78.9665 158.961 79.6265 158.745 80.4665H164.901C164.949 79.6145 164.721 78.9545 164.217 78.4865C163.725 78.0065 163.047 77.7665 162.183 77.7665ZM169.569 81.7265V81.8345C169.569 82.7225 169.821 83.4005 170.325 83.8685C170.829 84.3245 171.585 84.5525 172.593 84.5525C173.181 84.5525 173.733 84.4565 174.249 84.2645C174.765 84.0605 175.197 83.7905 175.545 83.4545L176.283 84.6965C175.815 85.1285 175.245 85.4645 174.573 85.7045C173.901 85.9445 173.193 86.0645 172.449 86.0645C171.513 86.0645 170.703 85.8965 170.019 85.5605C169.335 85.2245 168.807 84.7445 168.435 84.1205C168.063 83.4965 167.877 82.7645 167.877 81.9245C167.877 80.8565 168.105 79.8965 168.561 79.0445C169.029 78.1925 169.671 77.5265 170.487 77.0465C171.315 76.5665 172.239 76.3265 173.259 76.3265C174.555 76.3265 175.587 76.6985 176.355 77.4425C177.135 78.1745 177.525 79.1765 177.525 80.4485C177.525 80.8325 177.483 81.2585 177.399 81.7265H169.569ZM173.187 77.7665C172.335 77.7665 171.603 78.0065 170.991 78.4865C170.379 78.9665 169.965 79.6265 169.749 80.4665H175.905C175.953 79.6145 175.725 78.9545 175.221 78.4865C174.729 78.0065 174.051 77.7665 173.187 77.7665Z" fill="white"/>
<path d="M194.982 84.508C194.982 84.8064 194.803 85.0776 194.522 85.2042C194.413 85.2535 194.297 85.2774 194.181 85.2774C193.998 85.2774 193.817 85.2169 193.67 85.1002L189.292 81.6147H186.96C186.518 81.6151 186.159 81.2703 186.159 80.8455V77.7801C186.159 77.3551 186.518 77.0106 186.96 77.0106H189.292L193.67 73.5251C193.91 73.3346 194.241 73.294 194.522 73.4215C194.803 73.548 194.983 73.8194 194.983 74.1177L194.982 84.508ZM198.06 83.3057C198.041 83.307 198.022 83.3077 198.003 83.3077C197.791 83.3077 197.587 83.2274 197.436 83.0825L197.329 82.9792C197.048 82.7099 197.015 82.2832 197.252 81.9769C197.852 81.2001 198.168 80.2792 198.168 79.3131C198.168 78.274 197.809 77.2994 197.129 76.4945C196.87 76.1886 196.894 75.7442 197.184 75.4656L197.291 75.3627C197.451 75.209 197.665 75.1253 197.897 75.1385C198.123 75.1495 198.334 75.2516 198.477 75.4199C199.421 76.5289 199.919 77.8754 199.919 79.3133C199.919 80.6525 199.478 81.9272 198.644 82.9991C198.505 83.1777 198.292 83.2899 198.06 83.3057ZM201.371 85.6834C201.226 85.8479 201.017 85.9466 200.793 85.9557C200.782 85.9561 200.771 85.9564 200.759 85.9564C200.547 85.9564 200.344 85.8759 200.193 85.7312L200.088 85.6301C199.794 85.3478 199.774 84.8964 200.041 84.5908C201.333 83.1151 202.044 81.2408 202.044 79.3131C202.044 77.3079 201.282 75.3776 199.9 73.8778C199.619 73.5734 199.633 73.1125 199.932 72.8247L200.037 72.7237C200.193 72.5732 200.395 72.4904 200.627 72.4975C200.848 72.5035 201.056 72.5971 201.203 72.7555C202.874 74.5635 203.795 76.8926 203.795 79.3131C203.795 81.642 202.935 83.9045 201.371 85.6834Z" fill="white"/>
<path d="M32.4234 3.93463L25.9793 6.34972C24.5806 6.90318 17.0479 10.7875 13.0916 14.0478C8.14635 18.1233 8.44606 18.1233 5.14921 21.595C2.51173 24.3724 1.10726 28.6893 0.95736 30.3497C0.807503 34.5761 3.35479 39.1044 11.2975 40.6139C14.4444 41.0667 14.1447 41.2176 16.6923 41.2176C19.2399 41.2176 22.3908 39.4063 23.1362 37.7459C12.4664 40.0403 6.80176 37.0415 5.45303 35.3309C3.7047 33.6202 2.03238 28.7799 8.74597 22.5007C17.138 14.6516 19.9852 13.7459 24.7807 11.1799C29.5761 8.61387 32.2733 7.85915 32.7229 7.70821C33.1725 7.55727 36.4195 6.45035 37.9681 6.04783C38.3817 5.94031 38.9343 5.89013 40.3658 5.74595C41.8644 5.595 42.6134 5.595 42.6134 5.595C43.063 5.54469 43.8164 5.62519 44.4158 5.74595C45.0153 5.8667 45.315 5.99752 45.6244 6.48064L45.7645 6.80255L45.9144 7.40632C45.9144 8.16104 45.9693 7.88483 45.4609 8.91576C44.8654 10.1233 41.5147 15.4063 39.7664 17.8214C37.3686 21.1422 32.5432 27.8139 32.4234 27.9346C32.2735 28.0856 29.1159 28.0885 28.3811 28.2365C27.6319 28.3875 25.53 28.8403 24.3311 29.4441C23.1323 30.0478 20.8844 33.3686 22.2331 32.4629C23.5818 31.5573 26.7288 31.1044 30.3254 31.1044C23.7317 41.9724 23.8572 44.5206 23.7356 45.7459C23.5857 47.2554 24.1813 49.3686 24.3311 49.8214C24.451 50.1837 24.9805 51.0793 25.2303 51.4818L25.8297 52.3875L26.7288 53.2931C26.9786 53.4441 27.5231 53.7459 27.7029 53.7459C27.8827 53.7459 28.9267 53.9472 29.4263 54.0478L29.1266 53.7459L28.8268 52.9912L28.677 52.2365V51.4818V50.5761C28.677 50.3346 28.7769 49.6705 28.8268 49.3686L28.9767 48.6139L29.1266 47.5573L29.4263 46.6516C29.5462 46.2893 30.6751 43.6831 31.2245 42.4252L33.7721 37.7459C35.0209 35.5824 37.5185 31.3158 37.5185 31.5573C37.5185 31.7988 44.8116 32.4629 48.4581 32.7648L44.2621 40.161C43.5128 41.6202 41.8045 44.961 40.9653 46.6516C40.1261 48.3422 39.5166 49.9724 39.3168 50.5761C39.117 51.029 38.5376 52.5082 37.8183 54.8026C37.0989 57.0969 37.9182 59.8843 38.4177 60.9912C38.5675 61.3937 39.0771 62.4101 39.9163 63.2554C40.9653 64.312 40.9653 64.161 41.265 64.4629C41.5047 64.7044 42.3639 65.0667 42.7635 65.2176L45.9144 65.5195C46.364 65.5195 44.7243 65.2467 44.1122 64.6139C43.9663 64.4629 43.7626 63.6579 43.6627 63.2554L43.5167 61.595L43.8125 59.029L44.1122 57.5195L45.0114 54.6516L46.8097 49.5195L50.4062 41.8214L55.2017 32.6139L56.7002 32.4629L58.7982 31.7082C59.1479 31.5573 60.057 31.0742 60.8962 30.3497C61.7354 29.6252 62.2449 28.1359 62.3948 27.4818C61.3458 28.2365 59.1978 28.2365 57.5994 28.2365L57.7492 28.0856L59.7012 24.9158L61.7992 21.2931L63.1479 18.7271L64.0471 16.7648C64.2469 16.161 64.9188 14.0658 64.9462 13.2931C65.0961 9.0667 61.7992 6.50066 61.1998 6.19878L61.4995 8.91576V10.2742C61.4995 11.3309 59.8511 14.9535 57.3349 18.4252L54.6061 22.5007L51.3054 27.9346H51.0057L42.6137 27.7837H39.9163L41.8644 24.9158L45.9105 17.9724L48.0085 14.0478L49.2074 11.1799C49.4072 10.3246 49.9567 8.46293 49.5071 6.80255C49.1234 5.38527 48.5081 4.28683 48.1584 3.93463C47.7088 3.53211 46.5097 2.1233 44.5616 1.67047L43.3627 1.51953H41.7143L40.3658 1.67047L39.0169 1.97236L32.4234 3.93463Z" fill="white" stroke="white"/>
</svg>
