<svg width="121" height="120" viewBox="0 0 121 120" fill="none" xmlns="http://www.w3.org/2000/svg">
<g clip-path="url(#clip0)">
<path d="M121 14.9999C121 11.9999 118.983 9.99994 115.958 9.99994H5.04167C2.01667 9.99994 0 11.9999 0 14.9999V24.9999C0 27.9999 2.01667 29.9999 5.04167 29.9999H115.958C118.983 29.9999 121 27.9999 121 24.9999V14.9999Z" fill="black"/>
<path d="M121 54.9999C121 51.9999 118.983 49.9999 115.958 49.9999H5.04167C2.01667 49.9999 0 51.9999 0 54.9999V64.9999C0 67.9999 2.01667 69.9999 5.04167 69.9999H115.958C118.983 69.9999 121 67.9999 121 64.9999V54.9999Z" fill="black"/>
<path d="M121 95C121 92 118.983 90 115.958 90H5.04167C2.01667 90 0 92 0 95V105C0 108 2.01667 110 5.04167 110H115.958C118.983 110 121 108 121 105V95Z" fill="black"/>
</g>
<defs>
<clipPath id="clip0">
<rect width="121" height="120" fill="white"/>
</clipPath>
</defs>
</svg>
