<svg width="216" height="66" viewBox="0 0 216 66" fill="none" xmlns="http://www.w3.org/2000/svg">
<path d="M89.6008 5.34949H82.1768V1.82949H101.185V5.34949H93.7608V24.2295H89.6008V5.34949ZM112.893 24.5495C109.799 24.5495 107.389 23.6855 105.661 21.9575C103.933 20.2082 103.069 17.7122 103.069 14.4695V1.82949H107.229V14.3095C107.229 18.7042 109.127 20.9015 112.925 20.9015C116.701 20.9015 118.589 18.7042 118.589 14.3095V1.82949H122.685V14.4695C122.685 17.7122 121.821 20.2082 120.093 21.9575C118.386 23.6855 115.986 24.5495 112.893 24.5495ZM127.871 1.82949H132.031V20.7095H143.743V24.2295H127.871V1.82949ZM146.387 1.82949H150.547V20.7095H162.259V24.2295H146.387V1.82949ZM164.903 1.82949H169.063V24.2295H164.903V1.82949ZM191.282 20.7415V24.2295H174.482V1.82949H190.834V5.31749H178.642V11.1415H189.458V14.5655H178.642V20.7415H191.282ZM104.961 40.8295V63.2295H100.801V53.6295H89.2168V63.2295H85.0568V40.8295H89.2168V50.0775H100.801V40.8295H104.961ZM127.123 59.7415V63.2295H110.323V40.8295H126.675V44.3175H114.483V50.1415H125.299V53.5655H114.483V59.7415H127.123ZM131.121 40.8295H135.281V59.7095H146.993V63.2295H131.121V40.8295ZM166.437 59.7415V63.2295H149.637V40.8295H165.989V44.3175H153.797V50.1415H164.613V53.5655H153.797V59.7415H166.437ZM190.338 40.8295V63.2295H186.914L174.562 48.0615V63.2295H170.434V40.8295H173.858L186.21 55.9975V40.8295H190.338ZM212.501 59.7415V63.2295H195.701V40.8295H212.053V44.3175H199.861V50.1415H210.677V53.5655H199.861V59.7415H212.501Z" fill="white"/>
<path d="M32.4722 3.41509L26.0281 5.83019C24.6294 6.38365 17.0967 10.2679 13.1405 13.5283C8.19518 17.6038 8.49489 17.6038 5.19804 21.0755C2.56056 23.8528 1.15608 28.1698 1.00619 29.8302C0.856331 34.0566 3.40362 38.5849 11.3463 40.0943C14.4933 40.5472 14.1936 40.6981 16.7411 40.6981C19.2887 40.6981 22.4396 38.8868 23.185 37.2264C12.5152 39.5208 6.85059 36.522 5.50186 34.8113C3.75353 33.1006 2.08121 28.2604 8.7948 21.9811C17.1868 14.1321 20.0341 13.2264 24.8295 10.6604C29.6249 8.09434 32.3221 7.33962 32.7717 7.18868C33.2213 7.03774 36.4684 5.93082 38.0169 5.5283C38.4306 5.42077 38.9831 5.3706 40.4146 5.22642C41.9132 5.07547 42.6623 5.07547 42.6623 5.07547C43.1118 5.02516 43.8652 5.10566 44.4647 5.22642C45.0641 5.34717 45.3638 5.47799 45.6733 5.96111L45.8134 6.28302L45.9632 6.88679C45.9632 7.64151 46.0182 7.3653 45.5097 8.39623C44.9142 9.60377 41.5635 14.8868 39.8152 17.3019C37.4175 20.6226 32.5921 27.2943 32.4722 27.4151C32.3223 27.566 29.1647 27.569 28.43 27.717C27.6807 27.8679 25.5788 28.3208 24.38 28.9245C23.1811 29.5283 20.9333 32.8491 22.282 31.9434C23.6307 31.0377 26.7777 30.5849 30.3742 30.5849C23.7805 41.4528 23.9061 44.0011 23.7844 45.2264C23.6345 46.7359 24.2301 48.8491 24.38 49.3019C24.4998 49.6642 25.0293 50.5597 25.2791 50.9623L25.8785 51.8679L26.7777 52.7736C27.0274 52.9245 27.5719 53.2264 27.7517 53.2264C27.9316 53.2264 28.9756 53.4277 29.4751 53.5283L29.1754 53.2264L28.8757 52.4717L28.7258 51.717V50.9623V50.0566C28.7258 49.8151 28.8257 49.1509 28.8757 48.8491L29.0255 48.0943L29.1754 47.0377L29.4751 46.1321C29.595 45.7698 30.7239 43.1635 31.2734 41.9057L33.8209 37.2264C35.0698 35.0629 37.5674 30.7962 37.5674 31.0377C37.5674 31.2792 44.8604 31.9434 48.5069 32.2453L44.3109 39.6415C43.5616 41.1006 41.8533 44.4415 41.0141 46.1321C40.1749 47.8226 39.5655 49.4528 39.3657 50.0566C39.1658 50.5094 38.5864 51.9887 37.8671 54.283C37.1478 56.5774 37.967 59.3648 38.4665 60.4717C38.6164 60.8742 39.1259 61.8906 39.9651 62.7359C41.0141 63.7925 41.0141 63.6415 41.3138 63.9434C41.5536 64.1849 42.4127 64.5472 42.8124 64.6981L45.9632 65C46.4128 65 44.7732 64.7271 44.1611 64.0943C44.0151 63.9434 43.8114 63.1384 43.7115 62.7359L43.5655 61.0755L43.8614 58.5094L44.1611 57L45.0602 54.1321L46.8585 49L50.4551 41.3019L55.2505 32.0943L56.7491 31.9434L58.8471 31.1887C59.1967 31.0377 60.1059 30.5547 60.945 29.8302C61.7842 29.1057 62.2938 27.6164 62.4436 26.9623C61.3946 27.717 59.2467 27.717 57.6482 27.717L57.7981 27.566L59.7501 24.3962L61.8481 20.7736L63.1968 18.2075L64.0959 16.2453C64.2957 15.6415 64.9676 13.5463 64.995 12.7736C65.1449 8.54717 61.8481 5.98113 61.2486 5.67925L61.5483 8.39623V9.75472C61.5483 10.8113 59.8999 14.434 57.3837 17.9057L54.6549 21.9811L51.3542 27.4151H51.0545L42.6625 27.2642H39.9651L41.9132 24.3962L45.9594 17.4528L48.0574 13.5283L49.2562 10.6604C49.456 9.80503 50.0055 7.9434 49.5559 6.28302C49.1722 4.86574 48.5569 3.7673 48.2072 3.41509C47.7576 3.01258 46.5585 1.60377 44.6104 1.15094L43.4115 1H41.7631L40.4146 1.15094L39.0657 1.45283L32.4722 3.41509Z" fill="white" stroke="white"/>
</svg>
