<svg width="185" height="142" viewBox="0 0 185 142" fill="none" xmlns="http://www.w3.org/2000/svg">
<path d="M92.5156 125.941C92.5156 129.07 90.6334 131.913 87.6878 133.24C86.5489 133.758 85.3285 134.008 84.1161 134.008C82.1961 134.008 80.294 133.374 78.7576 132.15L32.8486 95.6031H8.3975C3.76049 95.6069 0 91.9923 0 87.5376V55.3958C0 50.9391 3.76049 47.3264 8.3975 47.3264H32.8506L78.7596 10.7795C81.2679 8.78218 84.7462 8.35637 87.6898 9.69299C90.6334 11.0201 92.5176 13.8651 92.5176 16.9928L92.5156 125.941ZM124.788 113.334C124.583 113.348 124.386 113.355 124.184 113.355C121.966 113.355 119.827 112.513 118.247 110.993L117.124 109.911C114.178 107.087 113.832 102.613 116.313 99.401C122.602 91.2553 125.921 81.5992 125.921 71.4695C125.921 60.5742 122.152 50.3548 115.021 41.915C112.306 38.7071 112.556 34.0481 115.599 31.1266L116.72 30.0478C118.398 28.4362 120.646 27.5578 123.079 27.6972C125.448 27.8118 127.66 28.883 129.163 30.6473C139.055 42.2759 144.28 56.3944 144.28 71.4714C144.28 85.5136 139.659 98.8797 130.914 110.119C129.453 111.992 127.219 113.168 124.788 113.334ZM159.507 138.266C157.988 139.99 155.792 141.025 153.441 141.121C153.325 141.124 153.208 141.128 153.089 141.128C150.865 141.128 148.73 140.284 147.15 138.766L146.047 137.707C142.964 134.747 142.756 130.013 145.558 126.809C159.101 111.335 166.563 91.683 166.563 71.4695C166.563 50.4445 158.575 30.2043 144.075 14.4781C141.136 11.2855 141.285 6.45265 144.413 3.43571L145.514 2.37596C147.148 0.798756 149.271 -0.0700448 151.706 0.00442389C154.017 0.0674358 156.203 1.04889 157.74 2.71012C175.266 21.6672 184.92 46.0891 184.92 71.4695C184.924 95.8895 175.898 119.613 159.507 138.266Z" fill="white"/>
</svg>
